<?xml version="1.0" encoding="UTF-8" standalone="no"?>
<!DOCTYPE svg PUBLIC "-//W3C//DTD SVG 1.1//EN"
 "http://www.w3.org/Graphics/SVG/1.1/DTD/svg11.dtd">
<!-- Generated by graphviz version 2.40.1 (20161225.0304)
 -->
<!-- Title: dependencies Pages: 1 -->
<svg width="1056pt" height="211pt"
 viewBox="0.00 0.00 1056.00 211.00" xmlns="http://www.w3.org/2000/svg" xmlns:xlink="http://www.w3.org/1999/xlink">
<g id="graph0" class="graph" transform="scale(1 1) rotate(0) translate(4 207)">
<title>dependencies</title>
<polygon fill="#ffffff" stroke="transparent" points="-4,4 -4,-207 1052,-207 1052,4 -4,4"/>
<text text-anchor="start" x="503.0091" y="-42.4" font-family="sans-serif" font-weight="bold" font-size="14.00" fill="#000000">Legend</text>
<polygon fill="#ffffb3" stroke="transparent" points="290,-10 290,-30 310,-30 310,-10 290,-10"/>
<text text-anchor="start" x="313.629" y="-15.4" font-family="sans-serif" font-size="14.00" fill="#000000"> &#160;Declarations</text>
<polygon fill="#8dd3c7" stroke="transparent" points="403,-10 403,-30 423,-30 423,-10 403,-10"/>
<text text-anchor="start" x="426.7251" y="-15.4" font-family="sans-serif" font-size="14.00" fill="#000000"> &#160;Module</text>
<polygon fill="#80b1d3" stroke="transparent" points="489,-10 489,-30 509,-30 509,-10 489,-10"/>
<text text-anchor="start" x="512.7812" y="-15.4" font-family="sans-serif" font-size="14.00" fill="#000000"> &#160;Bootstrap</text>
<polygon fill="#fdb462" stroke="transparent" points="586,-10 586,-30 606,-30 606,-10 586,-10"/>
<text text-anchor="start" x="609.6732" y="-15.4" font-family="sans-serif" font-size="14.00" fill="#000000"> &#160;Providers</text>
<polygon fill="#fb8072" stroke="transparent" points="682,-10 682,-30 702,-30 702,-10 682,-10"/>
<text text-anchor="start" x="705.7258" y="-15.4" font-family="sans-serif" font-size="14.00" fill="#000000"> &#160;Exports</text>
<g id="clust1" class="cluster">
<title>cluster_AboutModule</title>
<polygon fill="none" stroke="#000000" stroke-dasharray="1,5" points="8,-70 8,-195 1040,-195 1040,-70 8,-70"/>
</g>
<g id="clust2" class="cluster">
<title>cluster_AboutModule_declarations</title>
<polygon fill="none" stroke="#000000" points="448,-78 448,-130 1032,-130 1032,-78 448,-78"/>
</g>
<g id="clust7" class="cluster">
<title>cluster_AboutModule_imports</title>
<polygon fill="none" stroke="#000000" points="168,-78 168,-130 440,-130 440,-78 168,-78"/>
</g>
<g id="clust10" class="cluster">
<title>cluster_AboutModule_providers</title>
<polygon fill="none" stroke="#000000" points="16,-78 16,-130 160,-130 160,-78 16,-78"/>
</g>
<!-- AboutComponent -->
<g id="node1" class="node">
<title>AboutComponent</title>
<polygon fill="#ffffb3" stroke="#000000" points="1024.3301,-122 907.6699,-122 907.6699,-86 1024.3301,-86 1024.3301,-122"/>
<text text-anchor="middle" x="966" y="-99.8" font-family="Times,serif" font-size="14.00" fill="#000000">AboutComponent</text>
</g>
<!-- AboutModule -->
<g id="node5" class="node">
<title>AboutModule</title>
<polygon fill="#8dd3c7" stroke="#000000" points="557.0481,-187 554.0481,-191 533.0481,-191 530.0481,-187 462.9519,-187 462.9519,-151 557.0481,-151 557.0481,-187"/>
<text text-anchor="middle" x="510" y="-164.8" font-family="Times,serif" font-size="14.00" fill="#000000">AboutModule</text>
</g>
<!-- AboutComponent&#45;&gt;AboutModule -->
<g id="edge1" class="edge">
<title>AboutComponent&#45;&gt;AboutModule</title>
<path fill="none" stroke="#000000" d="M966,-122.2921C966,-144.2057 966,-178 966,-178 966,-178 567.0825,-178 567.0825,-178"/>
<polygon fill="#000000" stroke="#000000" points="567.0825,-174.5001 557.0825,-178 567.0825,-181.5001 567.0825,-174.5001"/>
</g>
<!-- ManifestoComponent -->
<g id="node2" class="node">
<title>ManifestoComponent</title>
<polygon fill="#ffffb3" stroke="#000000" points="890.0926,-122 751.9074,-122 751.9074,-86 890.0926,-86 890.0926,-122"/>
<text text-anchor="middle" x="821" y="-99.8" font-family="Times,serif" font-size="14.00" fill="#000000">ManifestoComponent</text>
</g>
<!-- ManifestoComponent&#45;&gt;AboutModule -->
<g id="edge2" class="edge">
<title>ManifestoComponent&#45;&gt;AboutModule</title>
<path fill="none" stroke="#000000" d="M821,-122.1061C821,-141.3391 821,-169 821,-169 821,-169 567.2342,-169 567.2342,-169"/>
<polygon fill="#000000" stroke="#000000" points="567.2342,-165.5001 557.2342,-169 567.2342,-172.5001 567.2342,-165.5001"/>
</g>
<!-- MembershipComponent -->
<g id="node3" class="node">
<title>MembershipComponent</title>
<polygon fill="#ffffb3" stroke="#000000" points="734.0926,-122 581.9074,-122 581.9074,-86 734.0926,-86 734.0926,-122"/>
<text text-anchor="middle" x="658" y="-99.8" font-family="Times,serif" font-size="14.00" fill="#000000">MembershipComponent</text>
</g>
<!-- MembershipComponent&#45;&gt;AboutModule -->
<g id="edge3" class="edge">
<title>MembershipComponent&#45;&gt;AboutModule</title>
<path fill="none" stroke="#000000" d="M658,-122.027C658,-138.3976 658,-160 658,-160 658,-160 567.235,-160 567.235,-160"/>
<polygon fill="#000000" stroke="#000000" points="567.2351,-156.5001 557.235,-160 567.235,-163.5001 567.2351,-156.5001"/>
</g>
<!-- StaffComponent -->
<g id="node4" class="node">
<title>StaffComponent</title>
<polygon fill="#ffffb3" stroke="#000000" points="564.0424,-122 455.9576,-122 455.9576,-86 564.0424,-86 564.0424,-122"/>
<text text-anchor="middle" x="510" y="-99.8" font-family="Times,serif" font-size="14.00" fill="#000000">StaffComponent</text>
</g>
<!-- StaffComponent&#45;&gt;AboutModule -->
<g id="edge4" class="edge">
<title>StaffComponent&#45;&gt;AboutModule</title>
<path fill="none" stroke="#000000" d="M510,-122.1061C510,-122.1061 510,-140.991 510,-140.991"/>
<polygon fill="#000000" stroke="#000000" points="506.5001,-140.9909 510,-150.991 513.5001,-140.991 506.5001,-140.9909"/>
</g>
<!-- AboutRoutingModule -->
<g id="node6" class="node">
<title>AboutRoutingModule</title>
<polygon fill="#8dd3c7" stroke="#000000" points="431.6652,-122 428.6652,-126 407.6652,-126 404.6652,-122 292.3348,-122 292.3348,-86 431.6652,-86 431.6652,-122"/>
<text text-anchor="middle" x="362" y="-99.8" font-family="Times,serif" font-size="14.00" fill="#000000">AboutRoutingModule</text>
</g>
<!-- AboutRoutingModule&#45;&gt;AboutModule -->
<g id="edge5" class="edge">
<title>AboutRoutingModule&#45;&gt;AboutModule</title>
<path fill="none" stroke="#000000" d="M362,-122.027C362,-138.3976 362,-160 362,-160 362,-160 452.765,-160 452.765,-160"/>
<polygon fill="#000000" stroke="#000000" points="452.765,-163.5001 462.765,-160 452.7649,-156.5001 452.765,-163.5001"/>
</g>
<!-- SharedModule -->
<g id="node7" class="node">
<title>SharedModule</title>
<polygon fill="#8dd3c7" stroke="#000000" points="274.4231,-122 271.4231,-126 250.4231,-126 247.4231,-122 175.5769,-122 175.5769,-86 274.4231,-86 274.4231,-122"/>
<text text-anchor="middle" x="225" y="-99.8" font-family="Times,serif" font-size="14.00" fill="#000000">SharedModule</text>
</g>
<!-- SharedModule&#45;&gt;AboutModule -->
<g id="edge6" class="edge">
<title>SharedModule&#45;&gt;AboutModule</title>
<path fill="none" stroke="#000000" d="M225,-122.1061C225,-141.3391 225,-169 225,-169 225,-169 452.938,-169 452.938,-169"/>
<polygon fill="#000000" stroke="#000000" points="452.9381,-172.5001 462.938,-169 452.938,-165.5001 452.9381,-172.5001"/>
</g>
<!-- AboutService -->
<g id="node8" class="node">
<title>AboutService</title>
<ellipse fill="#fdb462" stroke="#000000" cx="88" cy="-104" rx="64.2649" ry="18"/>
<text text-anchor="middle" x="88" y="-99.8" font-family="Times,serif" font-size="14.00" fill="#000000">AboutService</text>
</g>
<!-- AboutService&#45;&gt;AboutModule -->
<g id="edge7" class="edge">
<title>AboutService&#45;&gt;AboutModule</title>
<path fill="none" stroke="#000000" d="M88,-122.2921C88,-144.2057 88,-178 88,-178 88,-178 452.8196,-178 452.8196,-178"/>
<polygon fill="#000000" stroke="#000000" points="452.8196,-181.5001 462.8196,-178 452.8196,-174.5001 452.8196,-181.5001"/>
</g>
</g>
</svg>
