<svg xmlns="http://www.w3.org/2000/svg" xmlns:xlink="http://www.w3.org/1999/xlink" width="1408" height="211pt" viewBox="0 0 1056 211"><g id="graph0" class="graph" transform="scale(1 1) rotate(0) translate(4 207)"><title>dependencies</title><polygon fill="#fff" stroke="transparent" points="-4 4 -4 -207 1052 -207 1052 4 -4 4"/><text x="503.009" y="-42.4" fill="#000" font-family="sans-serif" font-size="14" font-weight="bold" text-anchor="start">Legend</text><polygon fill="#ffffb3" stroke="transparent" points="290 -10 290 -30 310 -30 310 -10 290 -10"/><text x="313.629" y="-15.4" fill="#000" font-family="sans-serif" font-size="14" text-anchor="start">Declarations</text><polygon fill="#8dd3c7" stroke="transparent" points="403 -10 403 -30 423 -30 423 -10 403 -10"/><text x="426.725" y="-15.4" fill="#000" font-family="sans-serif" font-size="14" text-anchor="start">Module</text><polygon fill="#80b1d3" stroke="transparent" points="489 -10 489 -30 509 -30 509 -10 489 -10"/><text x="512.781" y="-15.4" fill="#000" font-family="sans-serif" font-size="14" text-anchor="start">Bootstrap</text><polygon fill="#fdb462" stroke="transparent" points="586 -10 586 -30 606 -30 606 -10 586 -10"/><text x="609.673" y="-15.4" fill="#000" font-family="sans-serif" font-size="14" text-anchor="start">Providers</text><polygon fill="#fb8072" stroke="transparent" points="682 -10 682 -30 702 -30 702 -10 682 -10"/><text x="705.726" y="-15.4" fill="#000" font-family="sans-serif" font-size="14" text-anchor="start">Exports</text><g id="clust1" class="cluster"><title>cluster_AboutModule</title><polygon fill="none" stroke="#000" stroke-dasharray="1 5" points="8 -70 8 -195 1040 -195 1040 -70 8 -70"/></g><g id="clust2" class="cluster"><title>cluster_AboutModule_declarations</title><polygon fill="none" stroke="#000" points="448 -78 448 -130 1032 -130 1032 -78 448 -78"/></g><g id="clust7" class="cluster"><title>cluster_AboutModule_imports</title><polygon fill="none" stroke="#000" points="168 -78 168 -130 440 -130 440 -78 168 -78"/></g><g id="clust10" class="cluster"><title>cluster_AboutModule_providers</title><polygon fill="none" stroke="#000" points="16 -78 16 -130 160 -130 160 -78 16 -78"/></g><g id="node1" class="node"><title>AboutComponent</title><polygon fill="#ffffb3" stroke="#000" points="1024.33 -122 907.67 -122 907.67 -86 1024.33 -86 1024.33 -122"/><text x="966" y="-99.8" fill="#000" font-family="Times,serif" font-size="14" text-anchor="middle">AboutComponent</text></g><g id="node5" class="node"><title>AboutModule</title><polygon fill="#8dd3c7" stroke="#000" points="557.048 -187 554.048 -191 533.048 -191 530.048 -187 462.952 -187 462.952 -151 557.048 -151 557.048 -187"/><text x="510" y="-164.8" fill="#000" font-family="Times,serif" font-size="14" text-anchor="middle">AboutModule</text></g><g id="edge1" class="edge"><title>AboutComponent-&gt;AboutModule</title><path fill="none" stroke="#000" d="M966,-122.2921C966,-144.2057 966,-178 966,-178 966,-178 567.0825,-178 567.0825,-178"/><polygon fill="#000" stroke="#000" points="567.082 -174.5 557.082 -178 567.082 -181.5 567.082 -174.5"/></g><g id="node2" class="node"><title>ManifestoComponent</title><polygon fill="#ffffb3" stroke="#000" points="890.093 -122 751.907 -122 751.907 -86 890.093 -86 890.093 -122"/><text x="821" y="-99.8" fill="#000" font-family="Times,serif" font-size="14" text-anchor="middle">ManifestoComponent</text></g><g id="edge2" class="edge"><title>ManifestoComponent-&gt;AboutModule</title><path fill="none" stroke="#000" d="M821,-122.1061C821,-141.3391 821,-169 821,-169 821,-169 567.2342,-169 567.2342,-169"/><polygon fill="#000" stroke="#000" points="567.234 -165.5 557.234 -169 567.234 -172.5 567.234 -165.5"/></g><g id="node3" class="node"><title>MembershipComponent</title><polygon fill="#ffffb3" stroke="#000" points="734.093 -122 581.907 -122 581.907 -86 734.093 -86 734.093 -122"/><text x="658" y="-99.8" fill="#000" font-family="Times,serif" font-size="14" text-anchor="middle">MembershipComponent</text></g><g id="edge3" class="edge"><title>MembershipComponent-&gt;AboutModule</title><path fill="none" stroke="#000" d="M658,-122.027C658,-138.3976 658,-160 658,-160 658,-160 567.235,-160 567.235,-160"/><polygon fill="#000" stroke="#000" points="567.235 -156.5 557.235 -160 567.235 -163.5 567.235 -156.5"/></g><g id="node4" class="node"><title>StaffComponent</title><polygon fill="#ffffb3" stroke="#000" points="564.042 -122 455.958 -122 455.958 -86 564.042 -86 564.042 -122"/><text x="510" y="-99.8" fill="#000" font-family="Times,serif" font-size="14" text-anchor="middle">StaffComponent</text></g><g id="edge4" class="edge"><title>StaffComponent-&gt;AboutModule</title><path fill="none" stroke="#000" d="M510,-122.1061C510,-122.1061 510,-140.991 510,-140.991"/><polygon fill="#000" stroke="#000" points="506.5 -140.991 510 -150.991 513.5 -140.991 506.5 -140.991"/></g><g id="node6" class="node"><title>AboutRoutingModule</title><polygon fill="#8dd3c7" stroke="#000" points="431.665 -122 428.665 -126 407.665 -126 404.665 -122 292.335 -122 292.335 -86 431.665 -86 431.665 -122"/><text x="362" y="-99.8" fill="#000" font-family="Times,serif" font-size="14" text-anchor="middle">AboutRoutingModule</text></g><g id="edge5" class="edge"><title>AboutRoutingModule-&gt;AboutModule</title><path fill="none" stroke="#000" d="M362,-122.027C362,-138.3976 362,-160 362,-160 362,-160 452.765,-160 452.765,-160"/><polygon fill="#000" stroke="#000" points="452.765 -163.5 462.765 -160 452.765 -156.5 452.765 -163.5"/></g><g id="node7" class="node"><title>SharedModule</title><polygon fill="#8dd3c7" stroke="#000" points="274.423 -122 271.423 -126 250.423 -126 247.423 -122 175.577 -122 175.577 -86 274.423 -86 274.423 -122"/><text x="225" y="-99.8" fill="#000" font-family="Times,serif" font-size="14" text-anchor="middle">SharedModule</text></g><g id="edge6" class="edge"><title>SharedModule-&gt;AboutModule</title><path fill="none" stroke="#000" d="M225,-122.1061C225,-141.3391 225,-169 225,-169 225,-169 452.938,-169 452.938,-169"/><polygon fill="#000" stroke="#000" points="452.938 -172.5 462.938 -169 452.938 -165.5 452.938 -172.5"/></g><g id="node8" class="node"><title>AboutService</title><ellipse cx="88" cy="-104" fill="#fdb462" stroke="#000" rx="64.265" ry="18"/><text x="88" y="-99.8" fill="#000" font-family="Times,serif" font-size="14" text-anchor="middle">AboutService</text></g><g id="edge7" class="edge"><title>AboutService-&gt;AboutModule</title><path fill="none" stroke="#000" d="M88,-122.2921C88,-144.2057 88,-178 88,-178 88,-178 452.8196,-178 452.8196,-178"/><polygon fill="#000" stroke="#000" points="452.82 -181.5 462.82 -178 452.82 -174.5 452.82 -181.5"/></g></g></svg>