<?xml version="1.0" encoding="UTF-8" standalone="no"?>
<!DOCTYPE svg PUBLIC "-//W3C//DTD SVG 1.1//EN"
 "http://www.w3.org/Graphics/SVG/1.1/DTD/svg11.dtd">
<!-- Generated by graphviz version 2.40.1 (20161225.0304)
 -->
<!-- Title: dependencies Pages: 1 -->
<svg width="963pt" height="284pt"
 viewBox="0.00 0.00 963.00 284.00" xmlns="http://www.w3.org/2000/svg" xmlns:xlink="http://www.w3.org/1999/xlink">
<g id="graph0" class="graph" transform="scale(1 1) rotate(0) translate(4 280)">
<title>dependencies</title>
<polygon fill="#ffffff" stroke="transparent" points="-4,4 -4,-280 959,-280 959,4 -4,4"/>
<text text-anchor="start" x="456.5091" y="-42.4" font-family="sans-serif" font-weight="bold" font-size="14.00" fill="#000000">Legend</text>
<polygon fill="#ffffb3" stroke="transparent" points="243.5,-10 243.5,-30 263.5,-30 263.5,-10 243.5,-10"/>
<text text-anchor="start" x="267.129" y="-15.4" font-family="sans-serif" font-size="14.00" fill="#000000"> &#160;Declarations</text>
<polygon fill="#8dd3c7" stroke="transparent" points="356.5,-10 356.5,-30 376.5,-30 376.5,-10 356.5,-10"/>
<text text-anchor="start" x="380.2251" y="-15.4" font-family="sans-serif" font-size="14.00" fill="#000000"> &#160;Module</text>
<polygon fill="#80b1d3" stroke="transparent" points="442.5,-10 442.5,-30 462.5,-30 462.5,-10 442.5,-10"/>
<text text-anchor="start" x="466.2812" y="-15.4" font-family="sans-serif" font-size="14.00" fill="#000000"> &#160;Bootstrap</text>
<polygon fill="#fdb462" stroke="transparent" points="539.5,-10 539.5,-30 559.5,-30 559.5,-10 539.5,-10"/>
<text text-anchor="start" x="563.1732" y="-15.4" font-family="sans-serif" font-size="14.00" fill="#000000"> &#160;Providers</text>
<polygon fill="#fb8072" stroke="transparent" points="635.5,-10 635.5,-30 655.5,-30 655.5,-10 635.5,-10"/>
<text text-anchor="start" x="659.2258" y="-15.4" font-family="sans-serif" font-size="14.00" fill="#000000"> &#160;Exports</text>
<g id="clust1" class="cluster">
<title>cluster_SharedModule</title>
<polygon fill="none" stroke="#000000" stroke-dasharray="1,5" points="8,-70 8,-268 947,-268 947,-70 8,-70"/>
</g>
<g id="clust2" class="cluster">
<title>cluster_SharedModule_declarations</title>
<polygon fill="none" stroke="#000000" points="146,-78 146,-130 939,-130 939,-78 146,-78"/>
</g>
<g id="clust7" class="cluster">
<title>cluster_SharedModule_imports</title>
<polygon fill="none" stroke="#000000" points="16,-78 16,-130 138,-130 138,-78 16,-78"/>
</g>
<g id="clust8" class="cluster">
<title>cluster_SharedModule_exports</title>
<polygon fill="none" stroke="#000000" points="94,-208 94,-260 840,-260 840,-208 94,-208"/>
</g>
<!-- ContentwithSideNavComponent -->
<g id="node1" class="node">
<title>ContentwithSideNavComponent</title>
<polygon fill="#ffffb3" stroke="#000000" points="931.2617,-122 732.7383,-122 732.7383,-86 931.2617,-86 931.2617,-122"/>
<text text-anchor="middle" x="832" y="-99.8" font-family="Times,serif" font-size="14.00" fill="#000000">ContentwithSideNavComponent</text>
</g>
<!-- SharedModule -->
<g id="node5" class="node">
<title>SharedModule</title>
<polygon fill="#8dd3c7" stroke="#000000" points="494.4231,-187 491.4231,-191 470.4231,-191 467.4231,-187 395.5769,-187 395.5769,-151 494.4231,-151 494.4231,-187"/>
<text text-anchor="middle" x="445" y="-164.8" font-family="Times,serif" font-size="14.00" fill="#000000">SharedModule</text>
</g>
<!-- ContentwithSideNavComponent&#45;&gt;SharedModule -->
<g id="edge1" class="edge">
<title>ContentwithSideNavComponent&#45;&gt;SharedModule</title>
<path fill="none" stroke="#000000" d="M782.375,-122.1061C782.375,-141.3391 782.375,-169 782.375,-169 782.375,-169 504.4185,-169 504.4185,-169"/>
<polygon fill="#000000" stroke="#000000" points="504.4186,-165.5001 494.4185,-169 504.4185,-172.5001 504.4186,-165.5001"/>
</g>
<!-- ErrorNotFoundComponent -->
<g id="node2" class="node">
<title>ErrorNotFoundComponent</title>
<polygon fill="#ffffb3" stroke="#000000" points="714.647,-122 547.353,-122 547.353,-86 714.647,-86 714.647,-122"/>
<text text-anchor="middle" x="631" y="-99.8" font-family="Times,serif" font-size="14.00" fill="#000000">ErrorNotFoundComponent</text>
</g>
<!-- ErrorNotFoundComponent&#45;&gt;SharedModule -->
<g id="edge2" class="edge">
<title>ErrorNotFoundComponent&#45;&gt;SharedModule</title>
<path fill="none" stroke="#000000" d="M579.375,-122.027C579.375,-138.3976 579.375,-160 579.375,-160 579.375,-160 504.2733,-160 504.2733,-160"/>
<polygon fill="#000000" stroke="#000000" points="504.2733,-156.5001 494.2733,-160 504.2732,-163.5001 504.2733,-156.5001"/>
</g>
<!-- MessageDialogComponent -->
<g id="node3" class="node">
<title>MessageDialogComponent</title>
<polygon fill="#ffffb3" stroke="#000000" points="529.4129,-122 360.5871,-122 360.5871,-86 529.4129,-86 529.4129,-122"/>
<text text-anchor="middle" x="445" y="-99.8" font-family="Times,serif" font-size="14.00" fill="#000000">MessageDialogComponent</text>
</g>
<!-- MessageDialogComponent&#45;&gt;SharedModule -->
<g id="edge3" class="edge">
<title>MessageDialogComponent&#45;&gt;SharedModule</title>
<path fill="none" stroke="#000000" d="M445,-122.1061C445,-122.1061 445,-140.991 445,-140.991"/>
<polygon fill="#000000" stroke="#000000" points="441.5001,-140.9909 445,-150.991 448.5001,-140.991 441.5001,-140.9909"/>
</g>
<!-- UnderConstructionComponent -->
<g id="node4" class="node">
<title>UnderConstructionComponent</title>
<polygon fill="#ffffb3" stroke="#000000" points="342.1427,-122 153.8573,-122 153.8573,-86 342.1427,-86 342.1427,-122"/>
<text text-anchor="middle" x="248" y="-99.8" font-family="Times,serif" font-size="14.00" fill="#000000">UnderConstructionComponent</text>
</g>
<!-- UnderConstructionComponent&#45;&gt;SharedModule -->
<g id="edge4" class="edge">
<title>UnderConstructionComponent&#45;&gt;SharedModule</title>
<path fill="none" stroke="#000000" d="M327.043,-122.027C327.043,-138.3976 327.043,-160 327.043,-160 327.043,-160 385.6591,-160 385.6591,-160"/>
<polygon fill="#000000" stroke="#000000" points="385.6591,-163.5001 395.6591,-160 385.659,-156.5001 385.6591,-163.5001"/>
</g>
<!-- ContentwithSideNavComponent  -->
<g id="node7" class="node">
<title>ContentwithSideNavComponent </title>
<polygon fill="#fb8072" stroke="#000000" points="832.2618,-252 629.7382,-252 629.7382,-216 832.2618,-216 832.2618,-252"/>
<text text-anchor="middle" x="731" y="-229.8" font-family="Times,serif" font-size="14.00" fill="#000000">ContentwithSideNavComponent </text>
</g>
<!-- SharedModule&#45;&gt;ContentwithSideNavComponent  -->
<g id="edge6" class="edge">
<title>SharedModule&#45;&gt;ContentwithSideNavComponent </title>
<path fill="none" stroke="#000000" stroke-dasharray="5,2" d="M494.3308,-178C561.1951,-178 672.3463,-178 672.3463,-178 672.3463,-178 672.3463,-205.973 672.3463,-205.973"/>
<polygon fill="#000000" stroke="#000000" points="668.8463,-205.973 672.3463,-215.973 675.8463,-205.973 668.8463,-205.973"/>
</g>
<!-- ErrorNotFoundComponent  -->
<g id="node8" class="node">
<title>ErrorNotFoundComponent </title>
<polygon fill="#fb8072" stroke="#000000" points="611.6467,-252 440.3533,-252 440.3533,-216 611.6467,-216 611.6467,-252"/>
<text text-anchor="middle" x="526" y="-229.8" font-family="Times,serif" font-size="14.00" fill="#000000">ErrorNotFoundComponent </text>
</g>
<!-- SharedModule&#45;&gt;ErrorNotFoundComponent  -->
<g id="edge7" class="edge">
<title>SharedModule&#45;&gt;ErrorNotFoundComponent </title>
<path fill="none" stroke="#000000" stroke-dasharray="5,2" d="M467.3189,-187.1061C467.3189,-187.1061 467.3189,-205.991 467.3189,-205.991"/>
<polygon fill="#000000" stroke="#000000" points="463.819,-205.9909 467.3189,-215.991 470.819,-205.991 463.819,-205.9909"/>
</g>
<!-- MaterialModule  -->
<g id="node9" class="node">
<title>MaterialModule </title>
<polygon fill="#fb8072" stroke="#000000" points="422.4716,-252 311.5284,-252 311.5284,-216 422.4716,-216 422.4716,-252"/>
<text text-anchor="middle" x="367" y="-229.8" font-family="Times,serif" font-size="14.00" fill="#000000">MaterialModule </text>
</g>
<!-- SharedModule&#45;&gt;MaterialModule  -->
<g id="edge8" class="edge">
<title>SharedModule&#45;&gt;MaterialModule </title>
<path fill="none" stroke="#000000" stroke-dasharray="5,2" d="M409.0121,-187.1061C409.0121,-187.1061 409.0121,-205.991 409.0121,-205.991"/>
<polygon fill="#000000" stroke="#000000" points="405.5122,-205.9909 409.0121,-215.991 412.5122,-205.991 405.5122,-205.9909"/>
</g>
<!-- UnderConstructionComponent  -->
<g id="node10" class="node">
<title>UnderConstructionComponent </title>
<polygon fill="#fb8072" stroke="#000000" points="294.1425,-252 101.8575,-252 101.8575,-216 294.1425,-216 294.1425,-252"/>
<text text-anchor="middle" x="198" y="-229.8" font-family="Times,serif" font-size="14.00" fill="#000000">UnderConstructionComponent </text>
</g>
<!-- SharedModule&#45;&gt;UnderConstructionComponent  -->
<g id="edge9" class="edge">
<title>SharedModule&#45;&gt;UnderConstructionComponent </title>
<path fill="none" stroke="#000000" stroke-dasharray="5,2" d="M395.6505,-178C330.4799,-178 223.875,-178 223.875,-178 223.875,-178 223.875,-205.973 223.875,-205.973"/>
<polygon fill="#000000" stroke="#000000" points="220.3751,-205.973 223.875,-215.973 227.3751,-205.973 220.3751,-205.973"/>
</g>
<!-- MaterialModule -->
<g id="node6" class="node">
<title>MaterialModule</title>
<polygon fill="#8dd3c7" stroke="#000000" points="130.4706,-122 127.4706,-126 106.4706,-126 103.4706,-122 23.5294,-122 23.5294,-86 130.4706,-86 130.4706,-122"/>
<text text-anchor="middle" x="77" y="-99.8" font-family="Times,serif" font-size="14.00" fill="#000000">MaterialModule</text>
</g>
<!-- MaterialModule&#45;&gt;SharedModule -->
<g id="edge5" class="edge">
<title>MaterialModule&#45;&gt;SharedModule</title>
<path fill="none" stroke="#000000" d="M116.2071,-122.1061C116.2071,-141.3391 116.2071,-169 116.207,-169 116.207,-169 385.7764,-169 385.7764,-169"/>
<polygon fill="#000000" stroke="#000000" points="385.7764,-172.5001 395.7764,-169 385.7763,-165.5001 385.7764,-172.5001"/>
</g>
</g>
</svg>
