<svg xmlns="http://www.w3.org/2000/svg" xmlns:xlink="http://www.w3.org/1999/xlink" width="1008" height="284pt" viewBox="0 0 756 284"><g id="graph0" class="graph" transform="scale(1 1) rotate(0) translate(4 280)"><title>dependencies</title><polygon fill="#fff" stroke="transparent" points="-4 4 -4 -280 752 -280 752 4 -4 4"/><text x="353.009" y="-42.4" fill="#000" font-family="sans-serif" font-size="14" font-weight="bold" text-anchor="start">Legend</text><polygon fill="#ffffb3" stroke="transparent" points="140 -10 140 -30 160 -30 160 -10 140 -10"/><text x="163.629" y="-15.4" fill="#000" font-family="sans-serif" font-size="14" text-anchor="start">Declarations</text><polygon fill="#8dd3c7" stroke="transparent" points="253 -10 253 -30 273 -30 273 -10 253 -10"/><text x="276.725" y="-15.4" fill="#000" font-family="sans-serif" font-size="14" text-anchor="start">Module</text><polygon fill="#80b1d3" stroke="transparent" points="339 -10 339 -30 359 -30 359 -10 339 -10"/><text x="362.781" y="-15.4" fill="#000" font-family="sans-serif" font-size="14" text-anchor="start">Bootstrap</text><polygon fill="#fdb462" stroke="transparent" points="436 -10 436 -30 456 -30 456 -10 436 -10"/><text x="459.673" y="-15.4" fill="#000" font-family="sans-serif" font-size="14" text-anchor="start">Providers</text><polygon fill="#fb8072" stroke="transparent" points="532 -10 532 -30 552 -30 552 -10 532 -10"/><text x="555.726" y="-15.4" fill="#000" font-family="sans-serif" font-size="14" text-anchor="start">Exports</text><g id="clust1" class="cluster"><title>cluster_SharedModule</title><polygon fill="none" stroke="#000" stroke-dasharray="1 5" points="8 -70 8 -268 740 -268 740 -70 8 -70"/></g><g id="clust2" class="cluster"><title>cluster_SharedModule_declarations</title><polygon fill="none" stroke="#000" points="146 -78 146 -130 732 -130 732 -78 146 -78"/></g><g id="clust6" class="cluster"><title>cluster_SharedModule_imports</title><polygon fill="none" stroke="#000" points="16 -78 16 -130 138 -130 138 -78 16 -78"/></g><g id="clust7" class="cluster"><title>cluster_SharedModule_exports</title><polygon fill="none" stroke="#000" points="106 -208 106 -260 642 -260 642 -208 106 -208"/></g><g id="node1" class="node"><title>ContentwithSideNavComponent</title><polygon fill="#ffffb3" stroke="#000" points="724.262 -122 525.738 -122 525.738 -86 724.262 -86 724.262 -122"/><text x="625" y="-99.8" fill="#000" font-family="Times,serif" font-size="14" text-anchor="middle">ContentwithSideNavComponent</text></g><g id="node4" class="node"><title>SharedModule</title><polygon fill="#8dd3c7" stroke="#000" points="377.423 -187 374.423 -191 353.423 -191 350.423 -187 278.577 -187 278.577 -151 377.423 -151 377.423 -187"/><text x="328" y="-164.8" fill="#000" font-family="Times,serif" font-size="14" text-anchor="middle">SharedModule</text></g><g id="edge1" class="edge"><title>ContentwithSideNavComponent-&gt;SharedModule</title><path fill="none" stroke="#000" d="M579.875,-122.0225C579.875,-139.3734 579.875,-163 579.875,-163 579.875,-163 387.4619,-163 387.4619,-163"/><polygon fill="#000" stroke="#000" points="387.462 -159.5 377.462 -163 387.462 -166.5 387.462 -159.5"/></g><g id="node2" class="node"><title>ErrorNotFoundComponent</title><polygon fill="#ffffb3" stroke="#000" points="507.647 -122 340.353 -122 340.353 -86 507.647 -86 507.647 -122"/><text x="424" y="-99.8" fill="#000" font-family="Times,serif" font-size="14" text-anchor="middle">ErrorNotFoundComponent</text></g><g id="edge2" class="edge"><title>ErrorNotFoundComponent-&gt;SharedModule</title><path fill="none" stroke="#000" d="M358.6939,-122.1061C358.6939,-122.1061 358.6939,-140.991 358.6939,-140.991"/><polygon fill="#000" stroke="#000" points="355.194 -140.991 358.694 -150.991 362.194 -140.991 355.194 -140.991"/></g><g id="node3" class="node"><title>MessageDialogComponent</title><polygon fill="#ffffb3" stroke="#000" points="322.413 -122 153.587 -122 153.587 -86 322.413 -86 322.413 -122"/><text x="238" y="-99.8" fill="#000" font-family="Times,serif" font-size="14" text-anchor="middle">MessageDialogComponent</text></g><g id="edge3" class="edge"><title>MessageDialogComponent-&gt;SharedModule</title><path fill="none" stroke="#000" d="M300.4976,-122.1061C300.4976,-122.1061 300.4976,-140.991 300.4976,-140.991"/><polygon fill="#000" stroke="#000" points="296.998 -140.991 300.498 -150.991 303.998 -140.991 296.998 -140.991"/></g><g id="node6" class="node"><title>ContentwithSideNavComponent</title><polygon fill="#fb8072" stroke="#000" points="634.262 -252 431.738 -252 431.738 -216 634.262 -216 634.262 -252"/><text x="533" y="-229.8" fill="#000" font-family="Times,serif" font-size="14" text-anchor="middle">ContentwithSideNavComponent</text></g><g id="edge5" class="edge"><title>SharedModule-&gt;ContentwithSideNavComponent</title><path fill="none" stroke="#000" stroke-dasharray="5 2" d="M377.2128,-175C418.1814,-175 469.8463,-175 469.8463,-175 469.8463,-175 469.8463,-205.9775 469.8463,-205.9775"/><polygon fill="#000" stroke="#000" points="466.346 -205.977 469.846 -215.977 473.346 -205.977 466.346 -205.977"/></g><g id="node7" class="node"><title>ErrorNotFoundComponent</title><polygon fill="#fb8072" stroke="#000" points="413.647 -252 242.353 -252 242.353 -216 413.647 -216 413.647 -252"/><text x="328" y="-229.8" fill="#000" font-family="Times,serif" font-size="14" text-anchor="middle">ErrorNotFoundComponent</text></g><g id="edge6" class="edge"><title>SharedModule-&gt;ErrorNotFoundComponent</title><path fill="none" stroke="#000" stroke-dasharray="5 2" d="M328,-187.1061C328,-187.1061 328,-205.991 328,-205.991"/><polygon fill="#000" stroke="#000" points="324.5 -205.991 328 -215.991 331.5 -205.991 324.5 -205.991"/></g><g id="node8" class="node"><title>MaterialModule</title><polygon fill="#fb8072" stroke="#000" points="224.472 -252 113.528 -252 113.528 -216 224.472 -216 224.472 -252"/><text x="169" y="-229.8" fill="#000" font-family="Times,serif" font-size="14" text-anchor="middle">MaterialModule</text></g><g id="edge7" class="edge"><title>SharedModule-&gt;MaterialModule</title><path fill="none" stroke="#000" stroke-dasharray="5 2" d="M278.6076,-175C238.6592,-175 189.0145,-175 189.0145,-175 189.0145,-175 189.0145,-205.9775 189.0145,-205.9775"/><polygon fill="#000" stroke="#000" points="185.515 -205.977 189.014 -215.977 192.515 -205.977 185.515 -205.977"/></g><g id="node5" class="node"><title>MaterialModule</title><polygon fill="#8dd3c7" stroke="#000" points="130.471 -122 127.471 -126 106.471 -126 103.471 -122 23.529 -122 23.529 -86 130.471 -86 130.471 -122"/><text x="77" y="-99.8" fill="#000" font-family="Times,serif" font-size="14" text-anchor="middle">MaterialModule</text></g><g id="edge4" class="edge"><title>MaterialModule-&gt;SharedModule</title><path fill="none" stroke="#000" d="M122.125,-122.0225C122.125,-139.3734 122.125,-163 122.125,-163 122.125,-163 268.6878,-163 268.6878,-163"/><polygon fill="#000" stroke="#000" points="268.688 -166.5 278.688 -163 268.688 -159.5 268.688 -166.5"/></g></g></svg>