<?xml version="1.0" encoding="UTF-8" standalone="no"?>
<!DOCTYPE svg PUBLIC "-//W3C//DTD SVG 1.1//EN"
 "http://www.w3.org/Graphics/SVG/1.1/DTD/svg11.dtd">
<!-- Generated by graphviz version 2.40.1 (20161225.0304)
 -->
<!-- Title: dependencies Pages: 1 -->
<svg width="756pt" height="284pt"
 viewBox="0.00 0.00 756.00 284.00" xmlns="http://www.w3.org/2000/svg" xmlns:xlink="http://www.w3.org/1999/xlink">
<g id="graph0" class="graph" transform="scale(1 1) rotate(0) translate(4 280)">
<title>dependencies</title>
<polygon fill="#ffffff" stroke="transparent" points="-4,4 -4,-280 752,-280 752,4 -4,4"/>
<text text-anchor="start" x="353.0091" y="-42.4" font-family="sans-serif" font-weight="bold" font-size="14.00" fill="#000000">Legend</text>
<polygon fill="#ffffb3" stroke="transparent" points="140,-10 140,-30 160,-30 160,-10 140,-10"/>
<text text-anchor="start" x="163.629" y="-15.4" font-family="sans-serif" font-size="14.00" fill="#000000"> &#160;Declarations</text>
<polygon fill="#8dd3c7" stroke="transparent" points="253,-10 253,-30 273,-30 273,-10 253,-10"/>
<text text-anchor="start" x="276.7251" y="-15.4" font-family="sans-serif" font-size="14.00" fill="#000000"> &#160;Module</text>
<polygon fill="#80b1d3" stroke="transparent" points="339,-10 339,-30 359,-30 359,-10 339,-10"/>
<text text-anchor="start" x="362.7812" y="-15.4" font-family="sans-serif" font-size="14.00" fill="#000000"> &#160;Bootstrap</text>
<polygon fill="#fdb462" stroke="transparent" points="436,-10 436,-30 456,-30 456,-10 436,-10"/>
<text text-anchor="start" x="459.6732" y="-15.4" font-family="sans-serif" font-size="14.00" fill="#000000"> &#160;Providers</text>
<polygon fill="#fb8072" stroke="transparent" points="532,-10 532,-30 552,-30 552,-10 532,-10"/>
<text text-anchor="start" x="555.7258" y="-15.4" font-family="sans-serif" font-size="14.00" fill="#000000"> &#160;Exports</text>
<g id="clust1" class="cluster">
<title>cluster_SharedModule</title>
<polygon fill="none" stroke="#000000" stroke-dasharray="1,5" points="8,-70 8,-268 740,-268 740,-70 8,-70"/>
</g>
<g id="clust2" class="cluster">
<title>cluster_SharedModule_declarations</title>
<polygon fill="none" stroke="#000000" points="146,-78 146,-130 732,-130 732,-78 146,-78"/>
</g>
<g id="clust6" class="cluster">
<title>cluster_SharedModule_imports</title>
<polygon fill="none" stroke="#000000" points="16,-78 16,-130 138,-130 138,-78 16,-78"/>
</g>
<g id="clust7" class="cluster">
<title>cluster_SharedModule_exports</title>
<polygon fill="none" stroke="#000000" points="106,-208 106,-260 642,-260 642,-208 106,-208"/>
</g>
<!-- ContentwithSideNavComponent -->
<g id="node1" class="node">
<title>ContentwithSideNavComponent</title>
<polygon fill="#ffffb3" stroke="#000000" points="724.2617,-122 525.7383,-122 525.7383,-86 724.2617,-86 724.2617,-122"/>
<text text-anchor="middle" x="625" y="-99.8" font-family="Times,serif" font-size="14.00" fill="#000000">ContentwithSideNavComponent</text>
</g>
<!-- SharedModule -->
<g id="node4" class="node">
<title>SharedModule</title>
<polygon fill="#8dd3c7" stroke="#000000" points="377.4231,-187 374.4231,-191 353.4231,-191 350.4231,-187 278.5769,-187 278.5769,-151 377.4231,-151 377.4231,-187"/>
<text text-anchor="middle" x="328" y="-164.8" font-family="Times,serif" font-size="14.00" fill="#000000">SharedModule</text>
</g>
<!-- ContentwithSideNavComponent&#45;&gt;SharedModule -->
<g id="edge1" class="edge">
<title>ContentwithSideNavComponent&#45;&gt;SharedModule</title>
<path fill="none" stroke="#000000" d="M579.875,-122.0225C579.875,-139.3734 579.875,-163 579.875,-163 579.875,-163 387.4619,-163 387.4619,-163"/>
<polygon fill="#000000" stroke="#000000" points="387.4619,-159.5001 377.4619,-163 387.4618,-166.5001 387.4619,-159.5001"/>
</g>
<!-- ErrorNotFoundComponent -->
<g id="node2" class="node">
<title>ErrorNotFoundComponent</title>
<polygon fill="#ffffb3" stroke="#000000" points="507.647,-122 340.353,-122 340.353,-86 507.647,-86 507.647,-122"/>
<text text-anchor="middle" x="424" y="-99.8" font-family="Times,serif" font-size="14.00" fill="#000000">ErrorNotFoundComponent</text>
</g>
<!-- ErrorNotFoundComponent&#45;&gt;SharedModule -->
<g id="edge2" class="edge">
<title>ErrorNotFoundComponent&#45;&gt;SharedModule</title>
<path fill="none" stroke="#000000" d="M358.6939,-122.1061C358.6939,-122.1061 358.6939,-140.991 358.6939,-140.991"/>
<polygon fill="#000000" stroke="#000000" points="355.194,-140.9909 358.6939,-150.991 362.194,-140.991 355.194,-140.9909"/>
</g>
<!-- MessageDialogComponent -->
<g id="node3" class="node">
<title>MessageDialogComponent</title>
<polygon fill="#ffffb3" stroke="#000000" points="322.4129,-122 153.5871,-122 153.5871,-86 322.4129,-86 322.4129,-122"/>
<text text-anchor="middle" x="238" y="-99.8" font-family="Times,serif" font-size="14.00" fill="#000000">MessageDialogComponent</text>
</g>
<!-- MessageDialogComponent&#45;&gt;SharedModule -->
<g id="edge3" class="edge">
<title>MessageDialogComponent&#45;&gt;SharedModule</title>
<path fill="none" stroke="#000000" d="M300.4976,-122.1061C300.4976,-122.1061 300.4976,-140.991 300.4976,-140.991"/>
<polygon fill="#000000" stroke="#000000" points="296.9976,-140.9909 300.4976,-150.991 303.9976,-140.991 296.9976,-140.9909"/>
</g>
<!-- ContentwithSideNavComponent  -->
<g id="node6" class="node">
<title>ContentwithSideNavComponent </title>
<polygon fill="#fb8072" stroke="#000000" points="634.2618,-252 431.7382,-252 431.7382,-216 634.2618,-216 634.2618,-252"/>
<text text-anchor="middle" x="533" y="-229.8" font-family="Times,serif" font-size="14.00" fill="#000000">ContentwithSideNavComponent </text>
</g>
<!-- SharedModule&#45;&gt;ContentwithSideNavComponent  -->
<g id="edge5" class="edge">
<title>SharedModule&#45;&gt;ContentwithSideNavComponent </title>
<path fill="none" stroke="#000000" stroke-dasharray="5,2" d="M377.2128,-175C418.1814,-175 469.8463,-175 469.8463,-175 469.8463,-175 469.8463,-205.9775 469.8463,-205.9775"/>
<polygon fill="#000000" stroke="#000000" points="466.3463,-205.9774 469.8463,-215.9775 473.3463,-205.9775 466.3463,-205.9774"/>
</g>
<!-- ErrorNotFoundComponent  -->
<g id="node7" class="node">
<title>ErrorNotFoundComponent </title>
<polygon fill="#fb8072" stroke="#000000" points="413.6467,-252 242.3533,-252 242.3533,-216 413.6467,-216 413.6467,-252"/>
<text text-anchor="middle" x="328" y="-229.8" font-family="Times,serif" font-size="14.00" fill="#000000">ErrorNotFoundComponent </text>
</g>
<!-- SharedModule&#45;&gt;ErrorNotFoundComponent  -->
<g id="edge6" class="edge">
<title>SharedModule&#45;&gt;ErrorNotFoundComponent </title>
<path fill="none" stroke="#000000" stroke-dasharray="5,2" d="M328,-187.1061C328,-187.1061 328,-205.991 328,-205.991"/>
<polygon fill="#000000" stroke="#000000" points="324.5001,-205.9909 328,-215.991 331.5001,-205.991 324.5001,-205.9909"/>
</g>
<!-- MaterialModule  -->
<g id="node8" class="node">
<title>MaterialModule </title>
<polygon fill="#fb8072" stroke="#000000" points="224.4716,-252 113.5284,-252 113.5284,-216 224.4716,-216 224.4716,-252"/>
<text text-anchor="middle" x="169" y="-229.8" font-family="Times,serif" font-size="14.00" fill="#000000">MaterialModule </text>
</g>
<!-- SharedModule&#45;&gt;MaterialModule  -->
<g id="edge7" class="edge">
<title>SharedModule&#45;&gt;MaterialModule </title>
<path fill="none" stroke="#000000" stroke-dasharray="5,2" d="M278.6076,-175C238.6592,-175 189.0145,-175 189.0145,-175 189.0145,-175 189.0145,-205.9775 189.0145,-205.9775"/>
<polygon fill="#000000" stroke="#000000" points="185.5146,-205.9774 189.0145,-215.9775 192.5146,-205.9775 185.5146,-205.9774"/>
</g>
<!-- MaterialModule -->
<g id="node5" class="node">
<title>MaterialModule</title>
<polygon fill="#8dd3c7" stroke="#000000" points="130.4706,-122 127.4706,-126 106.4706,-126 103.4706,-122 23.5294,-122 23.5294,-86 130.4706,-86 130.4706,-122"/>
<text text-anchor="middle" x="77" y="-99.8" font-family="Times,serif" font-size="14.00" fill="#000000">MaterialModule</text>
</g>
<!-- MaterialModule&#45;&gt;SharedModule -->
<g id="edge4" class="edge">
<title>MaterialModule&#45;&gt;SharedModule</title>
<path fill="none" stroke="#000000" d="M122.125,-122.0225C122.125,-139.3734 122.125,-163 122.125,-163 122.125,-163 268.6878,-163 268.6878,-163"/>
<polygon fill="#000000" stroke="#000000" points="268.6878,-166.5001 278.6878,-163 268.6878,-159.5001 268.6878,-166.5001"/>
</g>
</g>
</svg>
