<?xml version="1.0" encoding="UTF-8" standalone="no"?>
<!DOCTYPE svg PUBLIC "-//W3C//DTD SVG 1.1//EN"
 "http://www.w3.org/Graphics/SVG/1.1/DTD/svg11.dtd">
<!-- Generated by graphviz version 2.40.1 (20161225.0304)
 -->
<!-- Title: dependencies Pages: 1 -->
<svg width="1939pt" height="211pt"
 viewBox="0.00 0.00 1939.00 211.00" xmlns="http://www.w3.org/2000/svg" xmlns:xlink="http://www.w3.org/1999/xlink">
<g id="graph0" class="graph" transform="scale(1 1) rotate(0) translate(4 207)">
<title>dependencies</title>
<polygon fill="#ffffff" stroke="transparent" points="-4,4 -4,-207 1935,-207 1935,4 -4,4"/>
<text text-anchor="start" x="944.5091" y="-42.4" font-family="sans-serif" font-weight="bold" font-size="14.00" fill="#000000">Legend</text>
<polygon fill="#ffffb3" stroke="transparent" points="731.5,-10 731.5,-30 751.5,-30 751.5,-10 731.5,-10"/>
<text text-anchor="start" x="755.129" y="-15.4" font-family="sans-serif" font-size="14.00" fill="#000000"> &#160;Declarations</text>
<polygon fill="#8dd3c7" stroke="transparent" points="844.5,-10 844.5,-30 864.5,-30 864.5,-10 844.5,-10"/>
<text text-anchor="start" x="868.2251" y="-15.4" font-family="sans-serif" font-size="14.00" fill="#000000"> &#160;Module</text>
<polygon fill="#80b1d3" stroke="transparent" points="930.5,-10 930.5,-30 950.5,-30 950.5,-10 930.5,-10"/>
<text text-anchor="start" x="954.2812" y="-15.4" font-family="sans-serif" font-size="14.00" fill="#000000"> &#160;Bootstrap</text>
<polygon fill="#fdb462" stroke="transparent" points="1027.5,-10 1027.5,-30 1047.5,-30 1047.5,-10 1027.5,-10"/>
<text text-anchor="start" x="1051.1732" y="-15.4" font-family="sans-serif" font-size="14.00" fill="#000000"> &#160;Providers</text>
<polygon fill="#fb8072" stroke="transparent" points="1123.5,-10 1123.5,-30 1143.5,-30 1143.5,-10 1123.5,-10"/>
<text text-anchor="start" x="1147.2258" y="-15.4" font-family="sans-serif" font-size="14.00" fill="#000000"> &#160;Exports</text>
<g id="clust1" class="cluster">
<title>cluster_MenuModule</title>
<polygon fill="none" stroke="#000000" stroke-dasharray="1,5" points="8,-70 8,-195 1923,-195 1923,-70 8,-70"/>
</g>
<g id="clust2" class="cluster">
<title>cluster_MenuModule_declarations</title>
<polygon fill="none" stroke="#000000" points="444,-78 444,-130 1915,-130 1915,-78 444,-78"/>
</g>
<g id="clust13" class="cluster">
<title>cluster_MenuModule_imports</title>
<polygon fill="none" stroke="#000000" points="166,-78 166,-130 436,-130 436,-78 166,-78"/>
</g>
<g id="clust16" class="cluster">
<title>cluster_MenuModule_providers</title>
<polygon fill="none" stroke="#000000" points="16,-78 16,-130 158,-130 158,-78 16,-78"/>
</g>
<!-- BottledComponent -->
<g id="node1" class="node">
<title>BottledComponent</title>
<polygon fill="#ffffb3" stroke="#000000" points="1907.0562,-122 1784.9438,-122 1784.9438,-86 1907.0562,-86 1907.0562,-122"/>
<text text-anchor="middle" x="1846" y="-99.8" font-family="Times,serif" font-size="14.00" fill="#000000">BottledComponent</text>
</g>
<!-- MenuModule -->
<g id="node11" class="node">
<title>MenuModule</title>
<polygon fill="#8dd3c7" stroke="#000000" points="1008.2092,-187 1005.2092,-191 984.2092,-191 981.2092,-187 915.7908,-187 915.7908,-151 1008.2092,-151 1008.2092,-187"/>
<text text-anchor="middle" x="962" y="-164.8" font-family="Times,serif" font-size="14.00" fill="#000000">MenuModule</text>
</g>
<!-- BottledComponent&#45;&gt;MenuModule -->
<g id="edge1" class="edge">
<title>BottledComponent&#45;&gt;MenuModule</title>
<path fill="none" stroke="#000000" d="M1846,-122.0908C1846,-145.1328 1846,-182 1846,-182 1846,-182 1018.283,-182 1018.283,-182"/>
<polygon fill="#000000" stroke="#000000" points="1018.2831,-178.5001 1008.283,-182 1018.283,-185.5001 1018.2831,-178.5001"/>
</g>
<!-- DrinkComponent -->
<g id="node2" class="node">
<title>DrinkComponent</title>
<polygon fill="#ffffb3" stroke="#000000" points="1766.9902,-122 1653.0098,-122 1653.0098,-86 1766.9902,-86 1766.9902,-122"/>
<text text-anchor="middle" x="1710" y="-99.8" font-family="Times,serif" font-size="14.00" fill="#000000">DrinkComponent</text>
</g>
<!-- DrinkComponent&#45;&gt;MenuModule -->
<g id="edge2" class="edge">
<title>DrinkComponent&#45;&gt;MenuModule</title>
<path fill="none" stroke="#000000" d="M1710,-122.0449C1710,-143.6623 1710,-177 1710,-177 1710,-177 1018.2263,-177 1018.2263,-177"/>
<polygon fill="#000000" stroke="#000000" points="1018.2263,-173.5001 1008.2263,-177 1018.2262,-180.5001 1018.2263,-173.5001"/>
</g>
<!-- FoodItemwFriesComponent -->
<g id="node3" class="node">
<title>FoodItemwFriesComponent</title>
<polygon fill="#ffffb3" stroke="#000000" points="1634.871,-122 1461.129,-122 1461.129,-86 1634.871,-86 1634.871,-122"/>
<text text-anchor="middle" x="1548" y="-99.8" font-family="Times,serif" font-size="14.00" fill="#000000">FoodItemwFriesComponent</text>
</g>
<!-- FoodItemwFriesComponent&#45;&gt;MenuModule -->
<g id="edge3" class="edge">
<title>FoodItemwFriesComponent&#45;&gt;MenuModule</title>
<path fill="none" stroke="#000000" d="M1548,-122.2228C1548,-142.3652 1548,-172 1548,-172 1548,-172 1018.4723,-172 1018.4723,-172"/>
<polygon fill="#000000" stroke="#000000" points="1018.4723,-168.5001 1008.4723,-172 1018.4722,-175.5001 1018.4723,-168.5001"/>
</g>
<!-- LiquorsComponent -->
<g id="node4" class="node">
<title>LiquorsComponent</title>
<polygon fill="#ffffb3" stroke="#000000" points="1443.3809,-122 1318.6191,-122 1318.6191,-86 1443.3809,-86 1443.3809,-122"/>
<text text-anchor="middle" x="1381" y="-99.8" font-family="Times,serif" font-size="14.00" fill="#000000">LiquorsComponent</text>
</g>
<!-- LiquorsComponent&#45;&gt;MenuModule -->
<g id="edge4" class="edge">
<title>LiquorsComponent&#45;&gt;MenuModule</title>
<path fill="none" stroke="#000000" d="M1381,-122.2222C1381,-140.8285 1381,-167 1381,-167 1381,-167 1018.4412,-167 1018.4412,-167"/>
<polygon fill="#000000" stroke="#000000" points="1018.4413,-163.5001 1008.4412,-167 1018.4412,-170.5001 1018.4413,-163.5001"/>
</g>
<!-- MainComponent -->
<g id="node5" class="node">
<title>MainComponent</title>
<polygon fill="#ffffb3" stroke="#000000" points="1300.3823,-122 1189.6177,-122 1189.6177,-86 1300.3823,-86 1300.3823,-122"/>
<text text-anchor="middle" x="1245" y="-99.8" font-family="Times,serif" font-size="14.00" fill="#000000">MainComponent</text>
</g>
<!-- MainComponent&#45;&gt;MenuModule -->
<g id="edge5" class="edge">
<title>MainComponent&#45;&gt;MenuModule</title>
<path fill="none" stroke="#000000" d="M1245,-122.0336C1245,-139.0597 1245,-162 1245,-162 1245,-162 1018.4148,-162 1018.4148,-162"/>
<polygon fill="#000000" stroke="#000000" points="1018.4148,-158.5001 1008.4148,-162 1018.4148,-165.5001 1018.4148,-158.5001"/>
</g>
<!-- MenuComponent -->
<g id="node6" class="node">
<title>MenuComponent</title>
<polygon fill="#ffffb3" stroke="#000000" points="1171.9916,-122 1058.0084,-122 1058.0084,-86 1171.9916,-86 1171.9916,-122"/>
<text text-anchor="middle" x="1115" y="-99.8" font-family="Times,serif" font-size="14.00" fill="#000000">MenuComponent</text>
</g>
<!-- MenuComponent&#45;&gt;MenuModule -->
<g id="edge6" class="edge">
<title>MenuComponent&#45;&gt;MenuModule</title>
<path fill="none" stroke="#000000" d="M1115,-122.2396C1115,-137.5706 1115,-157 1115,-157 1115,-157 1018.3202,-157 1018.3202,-157"/>
<polygon fill="#000000" stroke="#000000" points="1018.3203,-153.5001 1008.3202,-157 1018.3202,-160.5001 1018.3203,-153.5001"/>
</g>
<!-- MenuSectionComponent -->
<g id="node7" class="node">
<title>MenuSectionComponent</title>
<polygon fill="#ffffb3" stroke="#000000" points="1039.9846,-122 884.0154,-122 884.0154,-86 1039.9846,-86 1039.9846,-122"/>
<text text-anchor="middle" x="962" y="-99.8" font-family="Times,serif" font-size="14.00" fill="#000000">MenuSectionComponent</text>
</g>
<!-- MenuSectionComponent&#45;&gt;MenuModule -->
<g id="edge7" class="edge">
<title>MenuSectionComponent&#45;&gt;MenuModule</title>
<path fill="none" stroke="#000000" d="M962,-122.1061C962,-122.1061 962,-140.991 962,-140.991"/>
<polygon fill="#000000" stroke="#000000" points="958.5001,-140.9909 962,-150.991 965.5001,-140.991 958.5001,-140.9909"/>
</g>
<!-- MiscFoodItemComponent -->
<g id="node8" class="node">
<title>MiscFoodItemComponent</title>
<polygon fill="#ffffb3" stroke="#000000" points="865.766,-122 702.234,-122 702.234,-86 865.766,-86 865.766,-122"/>
<text text-anchor="middle" x="784" y="-99.8" font-family="Times,serif" font-size="14.00" fill="#000000">MiscFoodItemComponent</text>
</g>
<!-- MiscFoodItemComponent&#45;&gt;MenuModule -->
<g id="edge8" class="edge">
<title>MiscFoodItemComponent&#45;&gt;MenuModule</title>
<path fill="none" stroke="#000000" d="M784,-122.2396C784,-137.5706 784,-157 784,-157 784,-157 905.6973,-157 905.6973,-157"/>
<polygon fill="#000000" stroke="#000000" points="905.6973,-160.5001 915.6973,-157 905.6972,-153.5001 905.6973,-160.5001"/>
</g>
<!-- TapComponent -->
<g id="node9" class="node">
<title>TapComponent</title>
<polygon fill="#ffffb3" stroke="#000000" points="684.5996,-122 581.4004,-122 581.4004,-86 684.5996,-86 684.5996,-122"/>
<text text-anchor="middle" x="633" y="-99.8" font-family="Times,serif" font-size="14.00" fill="#000000">TapComponent</text>
</g>
<!-- TapComponent&#45;&gt;MenuModule -->
<g id="edge9" class="edge">
<title>TapComponent&#45;&gt;MenuModule</title>
<path fill="none" stroke="#000000" d="M633,-122.0336C633,-139.0597 633,-162 633,-162 633,-162 905.5601,-162 905.5601,-162"/>
<polygon fill="#000000" stroke="#000000" points="905.5602,-165.5001 915.5601,-162 905.5601,-158.5001 905.5602,-165.5001"/>
</g>
<!-- WineComponent -->
<g id="node10" class="node">
<title>WineComponent</title>
<polygon fill="#ffffb3" stroke="#000000" points="563.6527,-122 452.3473,-122 452.3473,-86 563.6527,-86 563.6527,-122"/>
<text text-anchor="middle" x="508" y="-99.8" font-family="Times,serif" font-size="14.00" fill="#000000">WineComponent</text>
</g>
<!-- WineComponent&#45;&gt;MenuModule -->
<g id="edge10" class="edge">
<title>WineComponent&#45;&gt;MenuModule</title>
<path fill="none" stroke="#000000" d="M508,-122.2222C508,-140.8285 508,-167 508,-167 508,-167 905.5476,-167 905.5476,-167"/>
<polygon fill="#000000" stroke="#000000" points="905.5476,-170.5001 915.5476,-167 905.5476,-163.5001 905.5476,-170.5001"/>
</g>
<!-- MenuRoutingModule -->
<g id="node12" class="node">
<title>MenuRoutingModule</title>
<polygon fill="#8dd3c7" stroke="#000000" points="427.8272,-122 424.8272,-126 403.8272,-126 400.8272,-122 290.1728,-122 290.1728,-86 427.8272,-86 427.8272,-122"/>
<text text-anchor="middle" x="359" y="-99.8" font-family="Times,serif" font-size="14.00" fill="#000000">MenuRoutingModule</text>
</g>
<!-- MenuRoutingModule&#45;&gt;MenuModule -->
<g id="edge11" class="edge">
<title>MenuRoutingModule&#45;&gt;MenuModule</title>
<path fill="none" stroke="#000000" d="M359,-122.2228C359,-142.3652 359,-172 359,-172 359,-172 905.6849,-172 905.6849,-172"/>
<polygon fill="#000000" stroke="#000000" points="905.6849,-175.5001 915.6849,-172 905.6848,-168.5001 905.6849,-175.5001"/>
</g>
<!-- SharedModule -->
<g id="node13" class="node">
<title>SharedModule</title>
<polygon fill="#8dd3c7" stroke="#000000" points="272.4231,-122 269.4231,-126 248.4231,-126 245.4231,-122 173.5769,-122 173.5769,-86 272.4231,-86 272.4231,-122"/>
<text text-anchor="middle" x="223" y="-99.8" font-family="Times,serif" font-size="14.00" fill="#000000">SharedModule</text>
</g>
<!-- SharedModule&#45;&gt;MenuModule -->
<g id="edge12" class="edge">
<title>SharedModule&#45;&gt;MenuModule</title>
<path fill="none" stroke="#000000" d="M223,-122.0449C223,-143.6623 223,-177 223,-177 223,-177 905.7722,-177 905.7722,-177"/>
<polygon fill="#000000" stroke="#000000" points="905.7723,-180.5001 915.7722,-177 905.7722,-173.5001 905.7723,-180.5001"/>
</g>
<!-- MenuService -->
<g id="node14" class="node">
<title>MenuService</title>
<ellipse fill="#fdb462" stroke="#000000" cx="87" cy="-104" rx="62.5392" ry="18"/>
<text text-anchor="middle" x="87" y="-99.8" font-family="Times,serif" font-size="14.00" fill="#000000">MenuService</text>
</g>
<!-- MenuService&#45;&gt;MenuModule -->
<g id="edge13" class="edge">
<title>MenuService&#45;&gt;MenuModule</title>
<path fill="none" stroke="#000000" d="M87,-122.0908C87,-145.1328 87,-182 87,-182 87,-182 905.8815,-182 905.8815,-182"/>
<polygon fill="#000000" stroke="#000000" points="905.8816,-185.5001 915.8815,-182 905.8815,-178.5001 905.8816,-185.5001"/>
</g>
</g>
</svg>
