<svg xmlns="http://www.w3.org/2000/svg" xmlns:xlink="http://www.w3.org/1999/xlink" width="1939pt" height="211pt" viewBox="0 0 1939 211"><g id="graph0" class="graph" transform="scale(1 1) rotate(0) translate(4 207)"><title>dependencies</title><polygon fill="#fff" stroke="transparent" points="-4 4 -4 -207 1935 -207 1935 4 -4 4"/><text x="944.509" y="-42.4" fill="#000" font-family="sans-serif" font-size="14" font-weight="bold" text-anchor="start">Legend</text><polygon fill="#ffffb3" stroke="transparent" points="731.5 -10 731.5 -30 751.5 -30 751.5 -10 731.5 -10"/><text x="755.129" y="-15.4" fill="#000" font-family="sans-serif" font-size="14" text-anchor="start">Declarations</text><polygon fill="#8dd3c7" stroke="transparent" points="844.5 -10 844.5 -30 864.5 -30 864.5 -10 844.5 -10"/><text x="868.225" y="-15.4" fill="#000" font-family="sans-serif" font-size="14" text-anchor="start">Module</text><polygon fill="#80b1d3" stroke="transparent" points="930.5 -10 930.5 -30 950.5 -30 950.5 -10 930.5 -10"/><text x="954.281" y="-15.4" fill="#000" font-family="sans-serif" font-size="14" text-anchor="start">Bootstrap</text><polygon fill="#fdb462" stroke="transparent" points="1027.5 -10 1027.5 -30 1047.5 -30 1047.5 -10 1027.5 -10"/><text x="1051.173" y="-15.4" fill="#000" font-family="sans-serif" font-size="14" text-anchor="start">Providers</text><polygon fill="#fb8072" stroke="transparent" points="1123.5 -10 1123.5 -30 1143.5 -30 1143.5 -10 1123.5 -10"/><text x="1147.226" y="-15.4" fill="#000" font-family="sans-serif" font-size="14" text-anchor="start">Exports</text><g id="clust1" class="cluster"><title>cluster_MenuModule</title><polygon fill="none" stroke="#000" stroke-dasharray="1 5" points="8 -70 8 -195 1923 -195 1923 -70 8 -70"/></g><g id="clust2" class="cluster"><title>cluster_MenuModule_declarations</title><polygon fill="none" stroke="#000" points="444 -78 444 -130 1915 -130 1915 -78 444 -78"/></g><g id="clust13" class="cluster"><title>cluster_MenuModule_imports</title><polygon fill="none" stroke="#000" points="166 -78 166 -130 436 -130 436 -78 166 -78"/></g><g id="clust16" class="cluster"><title>cluster_MenuModule_providers</title><polygon fill="none" stroke="#000" points="16 -78 16 -130 158 -130 158 -78 16 -78"/></g><g id="node1" class="node"><title>BottledComponent</title><polygon fill="#ffffb3" stroke="#000" points="1907.056 -122 1784.944 -122 1784.944 -86 1907.056 -86 1907.056 -122"/><text x="1846" y="-99.8" fill="#000" font-family="Times,serif" font-size="14" text-anchor="middle">BottledComponent</text></g><g id="node11" class="node"><title>MenuModule</title><polygon fill="#8dd3c7" stroke="#000" points="1008.209 -187 1005.209 -191 984.209 -191 981.209 -187 915.791 -187 915.791 -151 1008.209 -151 1008.209 -187"/><text x="962" y="-164.8" fill="#000" font-family="Times,serif" font-size="14" text-anchor="middle">MenuModule</text></g><g id="edge1" class="edge"><title>BottledComponent-&gt;MenuModule</title><path fill="none" stroke="#000" d="M1846,-122.0908C1846,-145.1328 1846,-182 1846,-182 1846,-182 1018.283,-182 1018.283,-182"/><polygon fill="#000" stroke="#000" points="1018.283 -178.5 1008.283 -182 1018.283 -185.5 1018.283 -178.5"/></g><g id="node2" class="node"><title>DrinkComponent</title><polygon fill="#ffffb3" stroke="#000" points="1766.99 -122 1653.01 -122 1653.01 -86 1766.99 -86 1766.99 -122"/><text x="1710" y="-99.8" fill="#000" font-family="Times,serif" font-size="14" text-anchor="middle">DrinkComponent</text></g><g id="edge2" class="edge"><title>DrinkComponent-&gt;MenuModule</title><path fill="none" stroke="#000" d="M1710,-122.0449C1710,-143.6623 1710,-177 1710,-177 1710,-177 1018.2263,-177 1018.2263,-177"/><polygon fill="#000" stroke="#000" points="1018.226 -173.5 1008.226 -177 1018.226 -180.5 1018.226 -173.5"/></g><g id="node3" class="node"><title>FoodItemwFriesComponent</title><polygon fill="#ffffb3" stroke="#000" points="1634.871 -122 1461.129 -122 1461.129 -86 1634.871 -86 1634.871 -122"/><text x="1548" y="-99.8" fill="#000" font-family="Times,serif" font-size="14" text-anchor="middle">FoodItemwFriesComponent</text></g><g id="edge3" class="edge"><title>FoodItemwFriesComponent-&gt;MenuModule</title><path fill="none" stroke="#000" d="M1548,-122.2228C1548,-142.3652 1548,-172 1548,-172 1548,-172 1018.4723,-172 1018.4723,-172"/><polygon fill="#000" stroke="#000" points="1018.472 -168.5 1008.472 -172 1018.472 -175.5 1018.472 -168.5"/></g><g id="node4" class="node"><title>LiquorsComponent</title><polygon fill="#ffffb3" stroke="#000" points="1443.381 -122 1318.619 -122 1318.619 -86 1443.381 -86 1443.381 -122"/><text x="1381" y="-99.8" fill="#000" font-family="Times,serif" font-size="14" text-anchor="middle">LiquorsComponent</text></g><g id="edge4" class="edge"><title>LiquorsComponent-&gt;MenuModule</title><path fill="none" stroke="#000" d="M1381,-122.2222C1381,-140.8285 1381,-167 1381,-167 1381,-167 1018.4412,-167 1018.4412,-167"/><polygon fill="#000" stroke="#000" points="1018.441 -163.5 1008.441 -167 1018.441 -170.5 1018.441 -163.5"/></g><g id="node5" class="node"><title>MainComponent</title><polygon fill="#ffffb3" stroke="#000" points="1300.382 -122 1189.618 -122 1189.618 -86 1300.382 -86 1300.382 -122"/><text x="1245" y="-99.8" fill="#000" font-family="Times,serif" font-size="14" text-anchor="middle">MainComponent</text></g><g id="edge5" class="edge"><title>MainComponent-&gt;MenuModule</title><path fill="none" stroke="#000" d="M1245,-122.0336C1245,-139.0597 1245,-162 1245,-162 1245,-162 1018.4148,-162 1018.4148,-162"/><polygon fill="#000" stroke="#000" points="1018.415 -158.5 1008.415 -162 1018.415 -165.5 1018.415 -158.5"/></g><g id="node6" class="node"><title>MenuComponent</title><polygon fill="#ffffb3" stroke="#000" points="1171.992 -122 1058.008 -122 1058.008 -86 1171.992 -86 1171.992 -122"/><text x="1115" y="-99.8" fill="#000" font-family="Times,serif" font-size="14" text-anchor="middle">MenuComponent</text></g><g id="edge6" class="edge"><title>MenuComponent-&gt;MenuModule</title><path fill="none" stroke="#000" d="M1115,-122.2396C1115,-137.5706 1115,-157 1115,-157 1115,-157 1018.3202,-157 1018.3202,-157"/><polygon fill="#000" stroke="#000" points="1018.32 -153.5 1008.32 -157 1018.32 -160.5 1018.32 -153.5"/></g><g id="node7" class="node"><title>MenuSectionComponent</title><polygon fill="#ffffb3" stroke="#000" points="1039.985 -122 884.015 -122 884.015 -86 1039.985 -86 1039.985 -122"/><text x="962" y="-99.8" fill="#000" font-family="Times,serif" font-size="14" text-anchor="middle">MenuSectionComponent</text></g><g id="edge7" class="edge"><title>MenuSectionComponent-&gt;MenuModule</title><path fill="none" stroke="#000" d="M962,-122.1061C962,-122.1061 962,-140.991 962,-140.991"/><polygon fill="#000" stroke="#000" points="958.5 -140.991 962 -150.991 965.5 -140.991 958.5 -140.991"/></g><g id="node8" class="node"><title>MiscFoodItemComponent</title><polygon fill="#ffffb3" stroke="#000" points="865.766 -122 702.234 -122 702.234 -86 865.766 -86 865.766 -122"/><text x="784" y="-99.8" fill="#000" font-family="Times,serif" font-size="14" text-anchor="middle">MiscFoodItemComponent</text></g><g id="edge8" class="edge"><title>MiscFoodItemComponent-&gt;MenuModule</title><path fill="none" stroke="#000" d="M784,-122.2396C784,-137.5706 784,-157 784,-157 784,-157 905.6973,-157 905.6973,-157"/><polygon fill="#000" stroke="#000" points="905.697 -160.5 915.697 -157 905.697 -153.5 905.697 -160.5"/></g><g id="node9" class="node"><title>TapComponent</title><polygon fill="#ffffb3" stroke="#000" points="684.6 -122 581.4 -122 581.4 -86 684.6 -86 684.6 -122"/><text x="633" y="-99.8" fill="#000" font-family="Times,serif" font-size="14" text-anchor="middle">TapComponent</text></g><g id="edge9" class="edge"><title>TapComponent-&gt;MenuModule</title><path fill="none" stroke="#000" d="M633,-122.0336C633,-139.0597 633,-162 633,-162 633,-162 905.5601,-162 905.5601,-162"/><polygon fill="#000" stroke="#000" points="905.56 -165.5 915.56 -162 905.56 -158.5 905.56 -165.5"/></g><g id="node10" class="node"><title>WineComponent</title><polygon fill="#ffffb3" stroke="#000" points="563.653 -122 452.347 -122 452.347 -86 563.653 -86 563.653 -122"/><text x="508" y="-99.8" fill="#000" font-family="Times,serif" font-size="14" text-anchor="middle">WineComponent</text></g><g id="edge10" class="edge"><title>WineComponent-&gt;MenuModule</title><path fill="none" stroke="#000" d="M508,-122.2222C508,-140.8285 508,-167 508,-167 508,-167 905.5476,-167 905.5476,-167"/><polygon fill="#000" stroke="#000" points="905.548 -170.5 915.548 -167 905.548 -163.5 905.548 -170.5"/></g><g id="node12" class="node"><title>MenuRoutingModule</title><polygon fill="#8dd3c7" stroke="#000" points="427.827 -122 424.827 -126 403.827 -126 400.827 -122 290.173 -122 290.173 -86 427.827 -86 427.827 -122"/><text x="359" y="-99.8" fill="#000" font-family="Times,serif" font-size="14" text-anchor="middle">MenuRoutingModule</text></g><g id="edge11" class="edge"><title>MenuRoutingModule-&gt;MenuModule</title><path fill="none" stroke="#000" d="M359,-122.2228C359,-142.3652 359,-172 359,-172 359,-172 905.6849,-172 905.6849,-172"/><polygon fill="#000" stroke="#000" points="905.685 -175.5 915.685 -172 905.685 -168.5 905.685 -175.5"/></g><g id="node13" class="node"><title>SharedModule</title><polygon fill="#8dd3c7" stroke="#000" points="272.423 -122 269.423 -126 248.423 -126 245.423 -122 173.577 -122 173.577 -86 272.423 -86 272.423 -122"/><text x="223" y="-99.8" fill="#000" font-family="Times,serif" font-size="14" text-anchor="middle">SharedModule</text></g><g id="edge12" class="edge"><title>SharedModule-&gt;MenuModule</title><path fill="none" stroke="#000" d="M223,-122.0449C223,-143.6623 223,-177 223,-177 223,-177 905.7722,-177 905.7722,-177"/><polygon fill="#000" stroke="#000" points="905.772 -180.5 915.772 -177 905.772 -173.5 905.772 -180.5"/></g><g id="node14" class="node"><title>MenuService</title><ellipse cx="87" cy="-104" fill="#fdb462" stroke="#000" rx="62.539" ry="18"/><text x="87" y="-99.8" fill="#000" font-family="Times,serif" font-size="14" text-anchor="middle">MenuService</text></g><g id="edge13" class="edge"><title>MenuService-&gt;MenuModule</title><path fill="none" stroke="#000" d="M87,-122.0908C87,-145.1328 87,-182 87,-182 87,-182 905.8815,-182 905.8815,-182"/><polygon fill="#000" stroke="#000" points="905.882 -185.5 915.881 -182 905.881 -178.5 905.882 -185.5"/></g></g></svg>