<?xml version="1.0" encoding="UTF-8" standalone="no"?>
<!DOCTYPE svg PUBLIC "-//W3C//DTD SVG 1.1//EN"
 "http://www.w3.org/Graphics/SVG/1.1/DTD/svg11.dtd">
<!-- Generated by graphviz version 2.40.1 (20161225.0304)
 -->
<!-- Title: dependencies Pages: 1 -->
<svg width="925pt" height="211pt"
 viewBox="0.00 0.00 925.00 211.00" xmlns="http://www.w3.org/2000/svg" xmlns:xlink="http://www.w3.org/1999/xlink">
<g id="graph0" class="graph" transform="scale(1 1) rotate(0) translate(4 207)">
<title>dependencies</title>
<polygon fill="#ffffff" stroke="transparent" points="-4,4 -4,-207 921,-207 921,4 -4,4"/>
<text text-anchor="start" x="437.5091" y="-42.4" font-family="sans-serif" font-weight="bold" font-size="14.00" fill="#000000">Legend</text>
<polygon fill="#ffffb3" stroke="transparent" points="224.5,-10 224.5,-30 244.5,-30 244.5,-10 224.5,-10"/>
<text text-anchor="start" x="248.129" y="-15.4" font-family="sans-serif" font-size="14.00" fill="#000000"> &#160;Declarations</text>
<polygon fill="#8dd3c7" stroke="transparent" points="337.5,-10 337.5,-30 357.5,-30 357.5,-10 337.5,-10"/>
<text text-anchor="start" x="361.2251" y="-15.4" font-family="sans-serif" font-size="14.00" fill="#000000"> &#160;Module</text>
<polygon fill="#80b1d3" stroke="transparent" points="423.5,-10 423.5,-30 443.5,-30 443.5,-10 423.5,-10"/>
<text text-anchor="start" x="447.2812" y="-15.4" font-family="sans-serif" font-size="14.00" fill="#000000"> &#160;Bootstrap</text>
<polygon fill="#fdb462" stroke="transparent" points="520.5,-10 520.5,-30 540.5,-30 540.5,-10 520.5,-10"/>
<text text-anchor="start" x="544.1732" y="-15.4" font-family="sans-serif" font-size="14.00" fill="#000000"> &#160;Providers</text>
<polygon fill="#fb8072" stroke="transparent" points="616.5,-10 616.5,-30 636.5,-30 636.5,-10 616.5,-10"/>
<text text-anchor="start" x="640.2258" y="-15.4" font-family="sans-serif" font-size="14.00" fill="#000000"> &#160;Exports</text>
<g id="clust1" class="cluster">
<title>cluster_GamesModule</title>
<polygon fill="none" stroke="#000000" stroke-dasharray="1,5" points="8,-70 8,-195 909,-195 909,-70 8,-70"/>
</g>
<g id="clust2" class="cluster">
<title>cluster_GamesModule_declarations</title>
<polygon fill="none" stroke="#000000" points="458,-78 458,-130 901,-130 901,-78 458,-78"/>
</g>
<g id="clust6" class="cluster">
<title>cluster_GamesModule_imports</title>
<polygon fill="none" stroke="#000000" points="174,-78 174,-130 450,-130 450,-78 174,-78"/>
</g>
<g id="clust9" class="cluster">
<title>cluster_GamesModule_providers</title>
<polygon fill="none" stroke="#000000" points="16,-78 16,-130 166,-130 166,-78 16,-78"/>
</g>
<!-- GameOptionsComponent -->
<g id="node1" class="node">
<title>GameOptionsComponent</title>
<polygon fill="#ffffb3" stroke="#000000" points="892.5912,-122 733.4088,-122 733.4088,-86 892.5912,-86 892.5912,-122"/>
<text text-anchor="middle" x="813" y="-99.8" font-family="Times,serif" font-size="14.00" fill="#000000">GameOptionsComponent</text>
</g>
<!-- GamesModule -->
<g id="node4" class="node">
<title>GamesModule</title>
<polygon fill="#8dd3c7" stroke="#000000" points="494.4217,-187 491.4217,-191 470.4217,-191 467.4217,-187 395.5783,-187 395.5783,-151 494.4217,-151 494.4217,-187"/>
<text text-anchor="middle" x="445" y="-164.8" font-family="Times,serif" font-size="14.00" fill="#000000">GamesModule</text>
</g>
<!-- GameOptionsComponent&#45;&gt;GamesModule -->
<g id="edge1" class="edge">
<title>GameOptionsComponent&#45;&gt;GamesModule</title>
<path fill="none" stroke="#000000" d="M813,-122.2843C813,-143.3211 813,-175 813,-175 813,-175 504.2483,-175 504.2483,-175"/>
<polygon fill="#000000" stroke="#000000" points="504.2483,-171.5001 494.2483,-175 504.2482,-178.5001 504.2483,-171.5001"/>
</g>
<!-- GamesComponent -->
<g id="node2" class="node">
<title>GamesComponent</title>
<polygon fill="#ffffb3" stroke="#000000" points="715.2036,-122 594.7964,-122 594.7964,-86 715.2036,-86 715.2036,-122"/>
<text text-anchor="middle" x="655" y="-99.8" font-family="Times,serif" font-size="14.00" fill="#000000">GamesComponent</text>
</g>
<!-- GamesComponent&#45;&gt;GamesModule -->
<g id="edge2" class="edge">
<title>GamesComponent&#45;&gt;GamesModule</title>
<path fill="none" stroke="#000000" d="M655,-122.0225C655,-139.3734 655,-163 655,-163 655,-163 504.2357,-163 504.2357,-163"/>
<polygon fill="#000000" stroke="#000000" points="504.2357,-159.5001 494.2357,-163 504.2356,-166.5001 504.2357,-159.5001"/>
</g>
<!-- MainComponent -->
<g id="node3" class="node">
<title>MainComponent</title>
<polygon fill="#ffffb3" stroke="#000000" points="576.3823,-122 465.6177,-122 465.6177,-86 576.3823,-86 576.3823,-122"/>
<text text-anchor="middle" x="521" y="-99.8" font-family="Times,serif" font-size="14.00" fill="#000000">MainComponent</text>
</g>
<!-- MainComponent&#45;&gt;GamesModule -->
<g id="edge3" class="edge">
<title>MainComponent&#45;&gt;GamesModule</title>
<path fill="none" stroke="#000000" d="M479.8847,-122.1061C479.8847,-122.1061 479.8847,-140.991 479.8847,-140.991"/>
<polygon fill="#000000" stroke="#000000" points="476.3847,-140.9909 479.8847,-150.991 483.3847,-140.991 476.3847,-140.9909"/>
</g>
<!-- GamesRoutingModule -->
<g id="node5" class="node">
<title>GamesRoutingModule</title>
<polygon fill="#8dd3c7" stroke="#000000" points="441.5393,-122 438.5393,-126 417.5393,-126 414.5393,-122 298.4607,-122 298.4607,-86 441.5393,-86 441.5393,-122"/>
<text text-anchor="middle" x="370" y="-99.8" font-family="Times,serif" font-size="14.00" fill="#000000">GamesRoutingModule</text>
</g>
<!-- GamesRoutingModule&#45;&gt;GamesModule -->
<g id="edge4" class="edge">
<title>GamesRoutingModule&#45;&gt;GamesModule</title>
<path fill="none" stroke="#000000" d="M418.7795,-122.1061C418.7795,-122.1061 418.7795,-140.991 418.7795,-140.991"/>
<polygon fill="#000000" stroke="#000000" points="415.2795,-140.9909 418.7795,-150.991 422.2795,-140.991 415.2795,-140.9909"/>
</g>
<!-- SharedModule -->
<g id="node6" class="node">
<title>SharedModule</title>
<polygon fill="#8dd3c7" stroke="#000000" points="280.4231,-122 277.4231,-126 256.4231,-126 253.4231,-122 181.5769,-122 181.5769,-86 280.4231,-86 280.4231,-122"/>
<text text-anchor="middle" x="231" y="-99.8" font-family="Times,serif" font-size="14.00" fill="#000000">SharedModule</text>
</g>
<!-- SharedModule&#45;&gt;GamesModule -->
<g id="edge5" class="edge">
<title>SharedModule&#45;&gt;GamesModule</title>
<path fill="none" stroke="#000000" d="M231,-122.0225C231,-139.3734 231,-163 231,-163 231,-163 385.6354,-163 385.6354,-163"/>
<polygon fill="#000000" stroke="#000000" points="385.6354,-166.5001 395.6354,-163 385.6353,-159.5001 385.6354,-166.5001"/>
</g>
<!-- GamesService -->
<g id="node7" class="node">
<title>GamesService</title>
<ellipse fill="#fdb462" stroke="#000000" cx="91" cy="-104" rx="66.6094" ry="18"/>
<text text-anchor="middle" x="91" y="-99.8" font-family="Times,serif" font-size="14.00" fill="#000000">GamesService</text>
</g>
<!-- GamesService&#45;&gt;GamesModule -->
<g id="edge6" class="edge">
<title>GamesService&#45;&gt;GamesModule</title>
<path fill="none" stroke="#000000" d="M91,-122.2843C91,-143.3211 91,-175 91,-175 91,-175 385.7778,-175 385.7778,-175"/>
<polygon fill="#000000" stroke="#000000" points="385.7779,-178.5001 395.7778,-175 385.7778,-171.5001 385.7779,-178.5001"/>
</g>
</g>
</svg>
