<svg xmlns="http://www.w3.org/2000/svg" xmlns:xlink="http://www.w3.org/1999/xlink" width="925pt" height="211pt" viewBox="0 0 925 211"><g id="graph0" class="graph" transform="scale(1 1) rotate(0) translate(4 207)"><title>dependencies</title><polygon fill="#fff" stroke="transparent" points="-4 4 -4 -207 921 -207 921 4 -4 4"/><text x="437.509" y="-42.4" fill="#000" font-family="sans-serif" font-size="14" font-weight="bold" text-anchor="start">Legend</text><polygon fill="#ffffb3" stroke="transparent" points="224.5 -10 224.5 -30 244.5 -30 244.5 -10 224.5 -10"/><text x="248.129" y="-15.4" fill="#000" font-family="sans-serif" font-size="14" text-anchor="start">Declarations</text><polygon fill="#8dd3c7" stroke="transparent" points="337.5 -10 337.5 -30 357.5 -30 357.5 -10 337.5 -10"/><text x="361.225" y="-15.4" fill="#000" font-family="sans-serif" font-size="14" text-anchor="start">Module</text><polygon fill="#80b1d3" stroke="transparent" points="423.5 -10 423.5 -30 443.5 -30 443.5 -10 423.5 -10"/><text x="447.281" y="-15.4" fill="#000" font-family="sans-serif" font-size="14" text-anchor="start">Bootstrap</text><polygon fill="#fdb462" stroke="transparent" points="520.5 -10 520.5 -30 540.5 -30 540.5 -10 520.5 -10"/><text x="544.173" y="-15.4" fill="#000" font-family="sans-serif" font-size="14" text-anchor="start">Providers</text><polygon fill="#fb8072" stroke="transparent" points="616.5 -10 616.5 -30 636.5 -30 636.5 -10 616.5 -10"/><text x="640.226" y="-15.4" fill="#000" font-family="sans-serif" font-size="14" text-anchor="start">Exports</text><g id="clust1" class="cluster"><title>cluster_GamesModule</title><polygon fill="none" stroke="#000" stroke-dasharray="1 5" points="8 -70 8 -195 909 -195 909 -70 8 -70"/></g><g id="clust2" class="cluster"><title>cluster_GamesModule_declarations</title><polygon fill="none" stroke="#000" points="458 -78 458 -130 901 -130 901 -78 458 -78"/></g><g id="clust6" class="cluster"><title>cluster_GamesModule_imports</title><polygon fill="none" stroke="#000" points="174 -78 174 -130 450 -130 450 -78 174 -78"/></g><g id="clust9" class="cluster"><title>cluster_GamesModule_providers</title><polygon fill="none" stroke="#000" points="16 -78 16 -130 166 -130 166 -78 16 -78"/></g><g id="node1" class="node"><title>GameOptionsComponent</title><polygon fill="#ffffb3" stroke="#000" points="892.591 -122 733.409 -122 733.409 -86 892.591 -86 892.591 -122"/><text x="813" y="-99.8" fill="#000" font-family="Times,serif" font-size="14" text-anchor="middle">GameOptionsComponent</text></g><g id="node4" class="node"><title>GamesModule</title><polygon fill="#8dd3c7" stroke="#000" points="494.422 -187 491.422 -191 470.422 -191 467.422 -187 395.578 -187 395.578 -151 494.422 -151 494.422 -187"/><text x="445" y="-164.8" fill="#000" font-family="Times,serif" font-size="14" text-anchor="middle">GamesModule</text></g><g id="edge1" class="edge"><title>GameOptionsComponent-&gt;GamesModule</title><path fill="none" stroke="#000" d="M813,-122.2843C813,-143.3211 813,-175 813,-175 813,-175 504.2483,-175 504.2483,-175"/><polygon fill="#000" stroke="#000" points="504.248 -171.5 494.248 -175 504.248 -178.5 504.248 -171.5"/></g><g id="node2" class="node"><title>GamesComponent</title><polygon fill="#ffffb3" stroke="#000" points="715.204 -122 594.796 -122 594.796 -86 715.204 -86 715.204 -122"/><text x="655" y="-99.8" fill="#000" font-family="Times,serif" font-size="14" text-anchor="middle">GamesComponent</text></g><g id="edge2" class="edge"><title>GamesComponent-&gt;GamesModule</title><path fill="none" stroke="#000" d="M655,-122.0225C655,-139.3734 655,-163 655,-163 655,-163 504.2357,-163 504.2357,-163"/><polygon fill="#000" stroke="#000" points="504.236 -159.5 494.236 -163 504.236 -166.5 504.236 -159.5"/></g><g id="node3" class="node"><title>MainComponent</title><polygon fill="#ffffb3" stroke="#000" points="576.382 -122 465.618 -122 465.618 -86 576.382 -86 576.382 -122"/><text x="521" y="-99.8" fill="#000" font-family="Times,serif" font-size="14" text-anchor="middle">MainComponent</text></g><g id="edge3" class="edge"><title>MainComponent-&gt;GamesModule</title><path fill="none" stroke="#000" d="M479.8847,-122.1061C479.8847,-122.1061 479.8847,-140.991 479.8847,-140.991"/><polygon fill="#000" stroke="#000" points="476.385 -140.991 479.885 -150.991 483.385 -140.991 476.385 -140.991"/></g><g id="node5" class="node"><title>GamesRoutingModule</title><polygon fill="#8dd3c7" stroke="#000" points="441.539 -122 438.539 -126 417.539 -126 414.539 -122 298.461 -122 298.461 -86 441.539 -86 441.539 -122"/><text x="370" y="-99.8" fill="#000" font-family="Times,serif" font-size="14" text-anchor="middle">GamesRoutingModule</text></g><g id="edge4" class="edge"><title>GamesRoutingModule-&gt;GamesModule</title><path fill="none" stroke="#000" d="M418.7795,-122.1061C418.7795,-122.1061 418.7795,-140.991 418.7795,-140.991"/><polygon fill="#000" stroke="#000" points="415.279 -140.991 418.779 -150.991 422.279 -140.991 415.279 -140.991"/></g><g id="node6" class="node"><title>SharedModule</title><polygon fill="#8dd3c7" stroke="#000" points="280.423 -122 277.423 -126 256.423 -126 253.423 -122 181.577 -122 181.577 -86 280.423 -86 280.423 -122"/><text x="231" y="-99.8" fill="#000" font-family="Times,serif" font-size="14" text-anchor="middle">SharedModule</text></g><g id="edge5" class="edge"><title>SharedModule-&gt;GamesModule</title><path fill="none" stroke="#000" d="M231,-122.0225C231,-139.3734 231,-163 231,-163 231,-163 385.6354,-163 385.6354,-163"/><polygon fill="#000" stroke="#000" points="385.635 -166.5 395.635 -163 385.635 -159.5 385.635 -166.5"/></g><g id="node7" class="node"><title>GamesService</title><ellipse cx="91" cy="-104" fill="#fdb462" stroke="#000" rx="66.609" ry="18"/><text x="91" y="-99.8" fill="#000" font-family="Times,serif" font-size="14" text-anchor="middle">GamesService</text></g><g id="edge6" class="edge"><title>GamesService-&gt;GamesModule</title><path fill="none" stroke="#000" d="M91,-122.2843C91,-143.3211 91,-175 91,-175 91,-175 385.7778,-175 385.7778,-175"/><polygon fill="#000" stroke="#000" points="385.778 -178.5 395.778 -175 385.778 -171.5 385.778 -178.5"/></g></g></svg>