<svg xmlns="http://www.w3.org/2000/svg" xmlns:xlink="http://www.w3.org/1999/xlink" width="672" height="284pt" viewBox="0 0 504 284"><g id="graph0" class="graph" transform="scale(1 1) rotate(0) translate(4 280)"><title>dependencies</title><polygon fill="#fff" stroke="transparent" points="-4 4 -4 -280 500 -280 500 4 -4 4"/><text x="227.009" y="-42.4" fill="#000" font-family="sans-serif" font-size="14" font-weight="bold" text-anchor="start">Legend</text><polygon fill="#ffffb3" stroke="transparent" points="14 -10 14 -30 34 -30 34 -10 14 -10"/><text x="37.629" y="-15.4" fill="#000" font-family="sans-serif" font-size="14" text-anchor="start">Declarations</text><polygon fill="#8dd3c7" stroke="transparent" points="127 -10 127 -30 147 -30 147 -10 127 -10"/><text x="150.725" y="-15.4" fill="#000" font-family="sans-serif" font-size="14" text-anchor="start">Module</text><polygon fill="#80b1d3" stroke="transparent" points="213 -10 213 -30 233 -30 233 -10 213 -10"/><text x="236.781" y="-15.4" fill="#000" font-family="sans-serif" font-size="14" text-anchor="start">Bootstrap</text><polygon fill="#fdb462" stroke="transparent" points="310 -10 310 -30 330 -30 330 -10 310 -10"/><text x="333.673" y="-15.4" fill="#000" font-family="sans-serif" font-size="14" text-anchor="start">Providers</text><polygon fill="#fb8072" stroke="transparent" points="406 -10 406 -30 426 -30 426 -10 406 -10"/><text x="429.726" y="-15.4" fill="#000" font-family="sans-serif" font-size="14" text-anchor="start">Exports</text><g id="clust1" class="cluster"><title>cluster_CoreModule</title><polygon fill="none" stroke="#000" stroke-dasharray="1 5" points="43.5 -70 43.5 -268 452.5 -268 452.5 -70 43.5 -70"/></g><g id="clust2" class="cluster"><title>cluster_CoreModule_declarations</title><polygon fill="none" stroke="#000" points="173.5 -78 173.5 -130 444.5 -130 444.5 -78 173.5 -78"/></g><g id="clust5" class="cluster"><title>cluster_CoreModule_imports</title><polygon fill="none" stroke="#000" points="51.5 -78 51.5 -130 165.5 -130 165.5 -78 51.5 -78"/></g><g id="clust6" class="cluster"><title>cluster_CoreModule_exports</title><polygon fill="none" stroke="#000" points="109.5 -208 109.5 -260 387.5 -260 387.5 -208 109.5 -208"/></g><g id="node1" class="node"><title>LoginComponent</title><polygon fill="#ffffb3" stroke="#000" points="436.776 -122 322.224 -122 322.224 -86 436.776 -86 436.776 -122"/><text x="379.5" y="-99.8" fill="#000" font-family="Times,serif" font-size="14" text-anchor="middle">LoginComponent</text></g><g id="node3" class="node"><title>CoreModule</title><polygon fill="#8dd3c7" stroke="#000" points="285.762 -187 282.762 -191 261.762 -191 258.762 -187 199.238 -187 199.238 -151 285.762 -151 285.762 -187"/><text x="242.5" y="-164.8" fill="#000" font-family="Times,serif" font-size="14" text-anchor="middle">CoreModule</text></g><g id="edge1" class="edge"><title>LoginComponent-&gt;CoreModule</title><path fill="none" stroke="#000" d="M350.875,-122.1061C350.875,-141.3391 350.875,-169 350.875,-169 350.875,-169 295.9558,-169 295.9558,-169"/><polygon fill="#000" stroke="#000" points="295.956 -165.5 285.956 -169 295.956 -172.5 295.956 -165.5"/></g><g id="node2" class="node"><title>NavbarComponent</title><polygon fill="#ffffb3" stroke="#000" points="303.53 -122 181.47 -122 181.47 -86 303.53 -86 303.53 -122"/><text x="242.5" y="-99.8" fill="#000" font-family="Times,serif" font-size="14" text-anchor="middle">NavbarComponent</text></g><g id="edge2" class="edge"><title>NavbarComponent-&gt;CoreModule</title><path fill="none" stroke="#000" d="M242.5,-122.1061C242.5,-122.1061 242.5,-140.991 242.5,-140.991"/><polygon fill="#000" stroke="#000" points="239 -140.991 242.5 -150.991 246 -140.991 239 -140.991"/></g><g id="node5" class="node"><title>LoginComponent</title><polygon fill="#fb8072" stroke="#000" points="379.776 -252 261.224 -252 261.224 -216 379.776 -216 379.776 -252"/><text x="320.5" y="-229.8" fill="#000" font-family="Times,serif" font-size="14" text-anchor="middle">LoginComponent</text></g><g id="edge4" class="edge"><title>CoreModule-&gt;LoginComponent</title><path fill="none" stroke="#000" stroke-dasharray="5 2" d="M273.6215,-187.1061C273.6215,-187.1061 273.6215,-205.991 273.6215,-205.991"/><polygon fill="#000" stroke="#000" points="270.122 -205.991 273.622 -215.991 277.122 -205.991 270.122 -205.991"/></g><g id="node6" class="node"><title>NavbarComponent</title><polygon fill="#fb8072" stroke="#000" points="243.529 -252 117.471 -252 117.471 -216 243.529 -216 243.529 -252"/><text x="180.5" y="-229.8" fill="#000" font-family="Times,serif" font-size="14" text-anchor="middle">NavbarComponent</text></g><g id="edge5" class="edge"><title>CoreModule-&gt;NavbarComponent</title><path fill="none" stroke="#000" stroke-dasharray="5 2" d="M221.3168,-187.1061C221.3168,-187.1061 221.3168,-205.991 221.3168,-205.991"/><polygon fill="#000" stroke="#000" points="217.817 -205.991 221.317 -215.991 224.817 -205.991 217.817 -205.991"/></g><g id="node4" class="node"><title>SharedModule</title><polygon fill="#8dd3c7" stroke="#000" points="157.923 -122 154.923 -126 133.923 -126 130.923 -122 59.077 -122 59.077 -86 157.923 -86 157.923 -122"/><text x="108.5" y="-99.8" fill="#000" font-family="Times,serif" font-size="14" text-anchor="middle">SharedModule</text></g><g id="edge3" class="edge"><title>SharedModule-&gt;CoreModule</title><path fill="none" stroke="#000" d="M137.5984,-122.1061C137.5984,-141.3391 137.5984,-169 137.5984,-169 137.5984,-169 189.2268,-169 189.2268,-169"/><polygon fill="#000" stroke="#000" points="189.227 -172.5 199.227 -169 189.227 -165.5 189.227 -172.5"/></g></g></svg>