<?xml version="1.0" encoding="UTF-8" standalone="no"?>
<!DOCTYPE svg PUBLIC "-//W3C//DTD SVG 1.1//EN"
 "http://www.w3.org/Graphics/SVG/1.1/DTD/svg11.dtd">
<!-- Generated by graphviz version 2.40.1 (20161225.0304)
 -->
<!-- Title: dependencies Pages: 1 -->
<svg width="504pt" height="284pt"
 viewBox="0.00 0.00 504.00 284.00" xmlns="http://www.w3.org/2000/svg" xmlns:xlink="http://www.w3.org/1999/xlink">
<g id="graph0" class="graph" transform="scale(1 1) rotate(0) translate(4 280)">
<title>dependencies</title>
<polygon fill="#ffffff" stroke="transparent" points="-4,4 -4,-280 500,-280 500,4 -4,4"/>
<text text-anchor="start" x="227.0091" y="-42.4" font-family="sans-serif" font-weight="bold" font-size="14.00" fill="#000000">Legend</text>
<polygon fill="#ffffb3" stroke="transparent" points="14,-10 14,-30 34,-30 34,-10 14,-10"/>
<text text-anchor="start" x="37.629" y="-15.4" font-family="sans-serif" font-size="14.00" fill="#000000"> &#160;Declarations</text>
<polygon fill="#8dd3c7" stroke="transparent" points="127,-10 127,-30 147,-30 147,-10 127,-10"/>
<text text-anchor="start" x="150.7251" y="-15.4" font-family="sans-serif" font-size="14.00" fill="#000000"> &#160;Module</text>
<polygon fill="#80b1d3" stroke="transparent" points="213,-10 213,-30 233,-30 233,-10 213,-10"/>
<text text-anchor="start" x="236.7812" y="-15.4" font-family="sans-serif" font-size="14.00" fill="#000000"> &#160;Bootstrap</text>
<polygon fill="#fdb462" stroke="transparent" points="310,-10 310,-30 330,-30 330,-10 310,-10"/>
<text text-anchor="start" x="333.6732" y="-15.4" font-family="sans-serif" font-size="14.00" fill="#000000"> &#160;Providers</text>
<polygon fill="#fb8072" stroke="transparent" points="406,-10 406,-30 426,-30 426,-10 406,-10"/>
<text text-anchor="start" x="429.7258" y="-15.4" font-family="sans-serif" font-size="14.00" fill="#000000"> &#160;Exports</text>
<g id="clust1" class="cluster">
<title>cluster_CoreModule</title>
<polygon fill="none" stroke="#000000" stroke-dasharray="1,5" points="43.5,-70 43.5,-268 452.5,-268 452.5,-70 43.5,-70"/>
</g>
<g id="clust2" class="cluster">
<title>cluster_CoreModule_declarations</title>
<polygon fill="none" stroke="#000000" points="173.5,-78 173.5,-130 444.5,-130 444.5,-78 173.5,-78"/>
</g>
<g id="clust5" class="cluster">
<title>cluster_CoreModule_imports</title>
<polygon fill="none" stroke="#000000" points="51.5,-78 51.5,-130 165.5,-130 165.5,-78 51.5,-78"/>
</g>
<g id="clust6" class="cluster">
<title>cluster_CoreModule_exports</title>
<polygon fill="none" stroke="#000000" points="109.5,-208 109.5,-260 387.5,-260 387.5,-208 109.5,-208"/>
</g>
<!-- LoginComponent -->
<g id="node1" class="node">
<title>LoginComponent</title>
<polygon fill="#ffffb3" stroke="#000000" points="436.7758,-122 322.2242,-122 322.2242,-86 436.7758,-86 436.7758,-122"/>
<text text-anchor="middle" x="379.5" y="-99.8" font-family="Times,serif" font-size="14.00" fill="#000000">LoginComponent</text>
</g>
<!-- CoreModule -->
<g id="node3" class="node">
<title>CoreModule</title>
<polygon fill="#8dd3c7" stroke="#000000" points="285.7619,-187 282.7619,-191 261.7619,-191 258.7619,-187 199.2381,-187 199.2381,-151 285.7619,-151 285.7619,-187"/>
<text text-anchor="middle" x="242.5" y="-164.8" font-family="Times,serif" font-size="14.00" fill="#000000">CoreModule</text>
</g>
<!-- LoginComponent&#45;&gt;CoreModule -->
<g id="edge1" class="edge">
<title>LoginComponent&#45;&gt;CoreModule</title>
<path fill="none" stroke="#000000" d="M350.875,-122.1061C350.875,-141.3391 350.875,-169 350.875,-169 350.875,-169 295.9558,-169 295.9558,-169"/>
<polygon fill="#000000" stroke="#000000" points="295.9558,-165.5001 285.9558,-169 295.9558,-172.5001 295.9558,-165.5001"/>
</g>
<!-- NavbarComponent -->
<g id="node2" class="node">
<title>NavbarComponent</title>
<polygon fill="#ffffb3" stroke="#000000" points="303.5297,-122 181.4703,-122 181.4703,-86 303.5297,-86 303.5297,-122"/>
<text text-anchor="middle" x="242.5" y="-99.8" font-family="Times,serif" font-size="14.00" fill="#000000">NavbarComponent</text>
</g>
<!-- NavbarComponent&#45;&gt;CoreModule -->
<g id="edge2" class="edge">
<title>NavbarComponent&#45;&gt;CoreModule</title>
<path fill="none" stroke="#000000" d="M242.5,-122.1061C242.5,-122.1061 242.5,-140.991 242.5,-140.991"/>
<polygon fill="#000000" stroke="#000000" points="239.0001,-140.9909 242.5,-150.991 246.0001,-140.991 239.0001,-140.9909"/>
</g>
<!-- LoginComponent  -->
<g id="node5" class="node">
<title>LoginComponent </title>
<polygon fill="#fb8072" stroke="#000000" points="379.7759,-252 261.2241,-252 261.2241,-216 379.7759,-216 379.7759,-252"/>
<text text-anchor="middle" x="320.5" y="-229.8" font-family="Times,serif" font-size="14.00" fill="#000000">LoginComponent </text>
</g>
<!-- CoreModule&#45;&gt;LoginComponent  -->
<g id="edge4" class="edge">
<title>CoreModule&#45;&gt;LoginComponent </title>
<path fill="none" stroke="#000000" stroke-dasharray="5,2" d="M273.6215,-187.1061C273.6215,-187.1061 273.6215,-205.991 273.6215,-205.991"/>
<polygon fill="#000000" stroke="#000000" points="270.1216,-205.9909 273.6215,-215.991 277.1216,-205.991 270.1216,-205.9909"/>
</g>
<!-- NavbarComponent  -->
<g id="node6" class="node">
<title>NavbarComponent </title>
<polygon fill="#fb8072" stroke="#000000" points="243.5288,-252 117.4712,-252 117.4712,-216 243.5288,-216 243.5288,-252"/>
<text text-anchor="middle" x="180.5" y="-229.8" font-family="Times,serif" font-size="14.00" fill="#000000">NavbarComponent </text>
</g>
<!-- CoreModule&#45;&gt;NavbarComponent  -->
<g id="edge5" class="edge">
<title>CoreModule&#45;&gt;NavbarComponent </title>
<path fill="none" stroke="#000000" stroke-dasharray="5,2" d="M221.3168,-187.1061C221.3168,-187.1061 221.3168,-205.991 221.3168,-205.991"/>
<polygon fill="#000000" stroke="#000000" points="217.8169,-205.9909 221.3168,-215.991 224.8169,-205.991 217.8169,-205.9909"/>
</g>
<!-- SharedModule -->
<g id="node4" class="node">
<title>SharedModule</title>
<polygon fill="#8dd3c7" stroke="#000000" points="157.9231,-122 154.9231,-126 133.9231,-126 130.9231,-122 59.0769,-122 59.0769,-86 157.9231,-86 157.9231,-122"/>
<text text-anchor="middle" x="108.5" y="-99.8" font-family="Times,serif" font-size="14.00" fill="#000000">SharedModule</text>
</g>
<!-- SharedModule&#45;&gt;CoreModule -->
<g id="edge3" class="edge">
<title>SharedModule&#45;&gt;CoreModule</title>
<path fill="none" stroke="#000000" d="M137.5984,-122.1061C137.5984,-141.3391 137.5984,-169 137.5984,-169 137.5984,-169 189.2268,-169 189.2268,-169"/>
<polygon fill="#000000" stroke="#000000" points="189.2269,-172.5001 199.2268,-169 189.2268,-165.5001 189.2269,-172.5001"/>
</g>
</g>
</svg>
