<svg xmlns="http://www.w3.org/2000/svg" xmlns:xlink="http://www.w3.org/1999/xlink" width="5680pt" height="434pt" viewBox="0 0 5680 434"><g id="graph0" class="graph" transform="scale(1 1) rotate(0) translate(4 430)"><title>dependencies</title><polygon fill="#fff" stroke="transparent" points="-4 4 -4 -430 5676 -430 5676 4 -4 4"/><text x="2815.009" y="-42.4" fill="#000" font-family="sans-serif" font-size="14" font-weight="bold" text-anchor="start">Legend</text><polygon fill="#ffffb3" stroke="transparent" points="2602 -10 2602 -30 2622 -30 2622 -10 2602 -10"/><text x="2625.629" y="-15.4" fill="#000" font-family="sans-serif" font-size="14" text-anchor="start">Declarations</text><polygon fill="#8dd3c7" stroke="transparent" points="2715 -10 2715 -30 2735 -30 2735 -10 2715 -10"/><text x="2738.725" y="-15.4" fill="#000" font-family="sans-serif" font-size="14" text-anchor="start">Module</text><polygon fill="#80b1d3" stroke="transparent" points="2801 -10 2801 -30 2821 -30 2821 -10 2801 -10"/><text x="2824.781" y="-15.4" fill="#000" font-family="sans-serif" font-size="14" text-anchor="start">Bootstrap</text><polygon fill="#fdb462" stroke="transparent" points="2898 -10 2898 -30 2918 -30 2918 -10 2898 -10"/><text x="2921.673" y="-15.4" fill="#000" font-family="sans-serif" font-size="14" text-anchor="start">Providers</text><polygon fill="#fb8072" stroke="transparent" points="2994 -10 2994 -30 3014 -30 3014 -10 2994 -10"/><text x="3017.726" y="-15.4" fill="#000" font-family="sans-serif" font-size="14" text-anchor="start">Exports</text><g id="clust1" class="cluster"><title>cluster_AboutModule</title><polygon fill="none" stroke="#000" stroke-dasharray="1 5" points="8 -146 8 -274 1040 -274 1040 -146 8 -146"/></g><g id="clust2" class="cluster"><title>cluster_AboutModule_declarations</title><polygon fill="none" stroke="#000" points="168 -154 168 -206 752 -206 752 -154 168 -154"/></g><g id="clust7" class="cluster"><title>cluster_AboutModule_imports</title><polygon fill="none" stroke="#000" points="760 -154 760 -206 1032 -206 1032 -154 760 -154"/></g><g id="clust10" class="cluster"><title>cluster_AboutModule_providers</title><polygon fill="none" stroke="#000" points="16 -154 16 -206 160 -206 160 -154 16 -154"/></g><g id="clust17" class="cluster"><title>cluster_AppModule</title><polygon fill="none" stroke="#000" stroke-dasharray="1 5" points="1048 -214 1048 -418 1903 -418 1903 -214 1048 -214"/></g><g id="clust18" class="cluster"><title>cluster_AppModule_declarations</title><polygon fill="none" stroke="#000" points="1056 -222 1056 -274 1638 -274 1638 -222 1056 -222"/></g><g id="clust23" class="cluster"><title>cluster_AppModule_imports</title><polygon fill="none" stroke="#000" points="1646 -222 1646 -274 1895 -274 1895 -222 1646 -222"/></g><g id="clust25" class="cluster"><title>cluster_AppModule_bootstrap</title><polygon fill="none" stroke="#000" points="1387 -358 1387 -410 1511 -410 1511 -358 1387 -358"/></g><g id="clust33" class="cluster"><title>cluster_CalendarModule</title><polygon fill="none" stroke="#000" stroke-dasharray="1 5" points="1911 -146 1911 -274 2685 -274 2685 -146 1911 -146"/></g><g id="clust34" class="cluster"><title>cluster_CalendarModule_declarations</title><polygon fill="none" stroke="#000" points="2407 -154 2407 -206 2677 -206 2677 -154 2407 -154"/></g><g id="clust37" class="cluster"><title>cluster_CalendarModule_imports</title><polygon fill="none" stroke="#000" points="2227 -154 2227 -206 2399 -206 2399 -154 2227 -154"/></g><g id="clust40" class="cluster"><title>cluster_CalendarModule_providers</title><polygon fill="none" stroke="#000" points="1919 -154 1919 -206 2219 -206 2219 -154 1919 -154"/></g><g id="clust47" class="cluster"><title>cluster_ContactModule</title><polygon fill="none" stroke="#000" stroke-dasharray="1 5" points="2693 -146 2693 -274 3194 -274 3194 -146 2693 -146"/></g><g id="clust48" class="cluster"><title>cluster_ContactModule_declarations</title><polygon fill="none" stroke="#000" points="2873 -154 2873 -206 3186 -206 3186 -154 2873 -154"/></g><g id="clust51" class="cluster"><title>cluster_ContactModule_imports</title><polygon fill="none" stroke="#000" points="2701 -154 2701 -206 2865 -206 2865 -154 2701 -154"/></g><g id="clust61" class="cluster"><title>cluster_CoreModule</title><polygon fill="none" stroke="#000" stroke-dasharray="1 5" points="1911 -282 1911 -350 2484 -350 2484 -282 1911 -282"/></g><g id="clust62" class="cluster"><title>cluster_CoreModule_declarations</title><polygon fill="none" stroke="#000" points="2205 -290 2205 -342 2476 -342 2476 -290 2205 -290"/></g><g id="clust66" class="cluster"><title>cluster_CoreModule_exports</title><polygon fill="none" stroke="#000" points="1919 -290 1919 -342 2197 -342 2197 -290 1919 -290"/></g><g id="clust69" class="cluster"><title>cluster_GamesModule</title><polygon fill="none" stroke="#000" stroke-dasharray="1 5" points="3202 -146 3202 -274 3986 -274 3986 -146 3202 -146"/></g><g id="clust70" class="cluster"><title>cluster_GamesModule_declarations</title><polygon fill="none" stroke="#000" points="3536 -154 3536 -206 3978 -206 3978 -154 3536 -154"/></g><g id="clust74" class="cluster"><title>cluster_GamesModule_imports</title><polygon fill="none" stroke="#000" points="3368 -154 3368 -206 3528 -206 3528 -154 3368 -154"/></g><g id="clust77" class="cluster"><title>cluster_GamesModule_providers</title><polygon fill="none" stroke="#000" points="3210 -154 3210 -206 3360 -206 3360 -154 3210 -154"/></g><g id="clust90" class="cluster"><title>cluster_MenuModule</title><polygon fill="none" stroke="#000" stroke-dasharray="1 5" points="3994 -146 3994 -274 5664 -274 5664 -146 3994 -146"/></g><g id="clust91" class="cluster"><title>cluster_MenuModule_declarations</title><polygon fill="none" stroke="#000" points="4314 -154 4314 -206 5656 -206 5656 -154 4314 -154"/></g><g id="clust102" class="cluster"><title>cluster_MenuModule_imports</title><polygon fill="none" stroke="#000" points="4152 -154 4152 -206 4306 -206 4306 -154 4152 -154"/></g><g id="clust105" class="cluster"><title>cluster_MenuModule_providers</title><polygon fill="none" stroke="#000" points="4002 -154 4002 -206 4144 -206 4144 -154 4002 -154"/></g><g id="clust112" class="cluster"><title>cluster_SharedModule</title><polygon fill="none" stroke="#000" stroke-dasharray="1 5" points="362 -70 362 -138 1639 -138 1639 -70 362 -70"/></g><g id="clust113" class="cluster"><title>cluster_SharedModule_declarations</title><polygon fill="none" stroke="#000" points="1044 -78 1044 -130 1631 -130 1631 -78 1044 -78"/></g><g id="clust117" class="cluster"><title>cluster_SharedModule_imports</title><polygon fill="none" stroke="#000" points="914 -78 914 -130 1036 -130 1036 -78 914 -78"/></g><g id="clust118" class="cluster"><title>cluster_SharedModule_exports</title><polygon fill="none" stroke="#000" points="370 -78 370 -130 906 -130 906 -78 370 -78"/></g><g id="node1" class="node"><title>AboutComponent</title><polygon fill="#ffffb3" stroke="#000" points="448.33 -198 331.67 -198 331.67 -162 448.33 -162 448.33 -198"/><text x="390" y="-175.8" fill="#000" font-family="Times,serif" font-size="14" text-anchor="middle">AboutComponent</text></g><g id="node5" class="node"><title>AboutModule</title><polygon fill="#8dd3c7" stroke="#000" points="567.048 -266 564.048 -270 543.048 -270 540.048 -266 472.952 -266 472.952 -230 567.048 -230 567.048 -266"/><text x="520" y="-243.8" fill="#000" font-family="Times,serif" font-size="14" text-anchor="middle">AboutModule</text></g><g id="edge1" class="edge"><title>AboutComponent-&gt;AboutModule</title><path fill="none" stroke="#000" d="M390,-198.0225C390,-215.3734 390,-239 390,-239 390,-239 462.6993,-239 462.6993,-239"/><polygon fill="#000" stroke="#000" points="462.699 -242.5 472.699 -239 462.699 -235.5 462.699 -242.5"/></g><g id="node2" class="node"><title>ManifestoComponent</title><polygon fill="#ffffb3" stroke="#000" points="314.093 -198 175.907 -198 175.907 -162 314.093 -162 314.093 -198"/><text x="245" y="-175.8" fill="#000" font-family="Times,serif" font-size="14" text-anchor="middle">ManifestoComponent</text></g><g id="edge2" class="edge"><title>ManifestoComponent-&gt;AboutModule</title><path fill="none" stroke="#000" d="M245,-198.2228C245,-218.3652 245,-248 245,-248 245,-248 462.7258,-248 462.7258,-248"/><polygon fill="#000" stroke="#000" points="462.726 -251.5 472.726 -248 462.726 -244.5 462.726 -251.5"/></g><g id="node3" class="node"><title>MembershipComponent</title><polygon fill="#ffffb3" stroke="#000" points="744.093 -198 591.907 -198 591.907 -162 744.093 -162 744.093 -198"/><text x="668" y="-175.8" fill="#000" font-family="Times,serif" font-size="14" text-anchor="middle">MembershipComponent</text></g><g id="edge3" class="edge"><title>MembershipComponent-&gt;AboutModule</title><path fill="none" stroke="#000" d="M668,-198.0225C668,-215.3734 668,-239 668,-239 668,-239 577.235,-239 577.235,-239"/><polygon fill="#000" stroke="#000" points="577.235 -235.5 567.235 -239 577.235 -242.5 577.235 -235.5"/></g><g id="node4" class="node"><title>StaffComponent</title><polygon fill="#ffffb3" stroke="#000" points="574.042 -198 465.958 -198 465.958 -162 574.042 -162 574.042 -198"/><text x="520" y="-175.8" fill="#000" font-family="Times,serif" font-size="14" text-anchor="middle">StaffComponent</text></g><g id="edge4" class="edge"><title>StaffComponent-&gt;AboutModule</title><path fill="none" stroke="#000" d="M520,-198.2228C520,-198.2228 520,-219.7269 520,-219.7269"/><polygon fill="#000" stroke="#000" points="516.5 -219.727 520 -229.727 523.5 -219.727 516.5 -219.727"/></g><g id="node6" class="node"><title>AboutRoutingModule</title><polygon fill="#8dd3c7" stroke="#000" points="907.665 -198 904.665 -202 883.665 -202 880.665 -198 768.335 -198 768.335 -162 907.665 -162 907.665 -198"/><text x="838" y="-175.8" fill="#000" font-family="Times,serif" font-size="14" text-anchor="middle">AboutRoutingModule</text></g><g id="edge5" class="edge"><title>AboutRoutingModule-&gt;AboutModule</title><path fill="none" stroke="#000" d="M838,-198.2228C838,-218.3652 838,-248 838,-248 838,-248 577.2644,-248 577.2644,-248"/><polygon fill="#000" stroke="#000" points="577.264 -244.5 567.264 -248 577.264 -251.5 577.264 -244.5"/></g><g id="node7" class="node"><title>SharedModule</title><polygon fill="#8dd3c7" stroke="#000" points="1024.423 -198 1021.423 -202 1000.423 -202 997.423 -198 925.577 -198 925.577 -162 1024.423 -162 1024.423 -198"/><text x="975" y="-175.8" fill="#000" font-family="Times,serif" font-size="14" text-anchor="middle">SharedModule</text></g><g id="edge6" class="edge"><title>SharedModule-&gt;AboutModule</title><path fill="none" stroke="#000" d="M991.4037,-198.2479C991.4037,-221.0179 991.4037,-257 991.4037,-257 991.4037,-257 577.3583,-257 577.3583,-257"/><polygon fill="#000" stroke="#000" points="577.358 -253.5 567.358 -257 577.358 -260.5 577.358 -253.5"/></g><g id="node13" class="node"><title>AppModule</title><polygon fill="#8dd3c7" stroke="#000" points="1490.657 -334 1487.657 -338 1466.657 -338 1463.657 -334 1407.343 -334 1407.343 -298 1490.657 -298 1490.657 -334"/><text x="1449" y="-311.8" fill="#000" font-family="Times,serif" font-size="14" text-anchor="middle">AppModule</text></g><g id="edge14" class="edge"><title>SharedModule-&gt;AppModule</title><path fill="none" stroke="#000" d="M1007.8074,-198.0712C1007.8074,-236.941 1007.8074,-325 1007.8074,-325 1007.8074,-325 1397.0959,-325 1397.0959,-325"/><polygon fill="#000" stroke="#000" points="1397.096 -328.5 1407.096 -325 1397.096 -321.5 1397.096 -328.5"/></g><g id="node15" class="node"><title>CoreModule</title><polygon fill="#8dd3c7" stroke="#000" points="1887.262 -266 1884.262 -270 1863.262 -270 1860.262 -266 1800.738 -266 1800.738 -230 1887.262 -230 1887.262 -266"/><text x="1844" y="-243.8" fill="#000" font-family="Times,serif" font-size="14" text-anchor="middle">CoreModule</text></g><g id="edge28" class="edge"><title>SharedModule-&gt;CoreModule</title><path fill="none" stroke="#000" d="M1024.5263,-192C1208.7683,-192 1844,-192 1844,-192 1844,-192 1844,-219.973 1844,-219.973"/><polygon fill="#000" stroke="#000" points="1840.5 -219.973 1844 -229.973 1847.5 -219.973 1840.5 -219.973"/></g><g id="node19" class="node"><title>CalendarModule</title><polygon fill="#8dd3c7" stroke="#000" points="2279.081 -266 2276.081 -270 2255.081 -270 2252.081 -266 2168.919 -266 2168.919 -230 2279.081 -230 2279.081 -266"/><text x="2224" y="-243.8" fill="#000" font-family="Times,serif" font-size="14" text-anchor="middle">CalendarModule</text></g><g id="edge19" class="edge"><title>SharedModule-&gt;CalendarModule</title><path fill="none" stroke="#000" d="M1024.4546,-186C1217.15,-186 1907.0802,-186 1907.0802,-186 1907.0802,-186 1907.0802,-248 1907.0802,-248 1907.0802,-248 2158.7968,-248 2158.7968,-248"/><polygon fill="#000" stroke="#000" points="2158.797 -251.5 2168.797 -248 2158.797 -244.5 2158.797 -251.5"/></g><g id="node25" class="node"><title>ContactModule</title><polygon fill="#8dd3c7" stroke="#000" points="2921.597 -266 2918.597 -270 2897.597 -270 2894.597 -266 2818.403 -266 2818.403 -230 2921.597 -230 2921.597 -266"/><text x="2870" y="-243.8" fill="#000" font-family="Times,serif" font-size="14" text-anchor="middle">ContactModule</text></g><g id="edge25" class="edge"><title>SharedModule-&gt;ContactModule</title><path fill="none" stroke="#000" d="M942.1926,-198.0555C942.1926,-209.439 942.1926,-222 942.1926,-222 942.1926,-222 2831.3368,-222 2831.3368,-222 2831.3368,-222 2831.3368,-222.7942 2831.3368,-222.7942"/><polygon fill="#000" stroke="#000" points="2827.837 -219.942 2831.337 -229.942 2834.837 -219.942 2827.837 -219.942"/></g><g id="node34" class="node"><title>GamesModule</title><polygon fill="#8dd3c7" stroke="#000" points="3575.422 -266 3572.422 -270 3551.422 -270 3548.422 -266 3476.578 -266 3476.578 -230 3575.422 -230 3575.422 -266"/><text x="3526" y="-243.8" fill="#000" font-family="Times,serif" font-size="14" text-anchor="middle">GamesModule</text></g><g id="edge35" class="edge"><title>SharedModule-&gt;GamesModule</title><path fill="none" stroke="#000" d="M958.5963,-198.1944C958.5963,-206.2782 958.5963,-214 958.5963,-214 958.5963,-214 3491.1162,-214 3491.1162,-214 3491.1162,-214 3491.1162,-219.8056 3491.1162,-219.8056"/><polygon fill="#000" stroke="#000" points="3487.616 -219.805 3491.116 -229.806 3494.616 -219.806 3487.616 -219.805"/></g><g id="node46" class="node"><title>MenuModule</title><polygon fill="#8dd3c7" stroke="#000" points="4689.209 -266 4686.209 -270 4665.209 -270 4662.209 -266 4596.791 -266 4596.791 -230 4689.209 -230 4689.209 -266"/><text x="4643" y="-243.8" fill="#000" font-family="Times,serif" font-size="14" text-anchor="middle">MenuModule</text></g><g id="edge48" class="edge"><title>SharedModule-&gt;MenuModule</title><path fill="none" stroke="#000" d="M975,-198.0579C975,-202.4945 975,-206 975,-206 975,-206 4627.6318,-206 4627.6318,-206 4627.6318,-206 4627.6318,-219.9445 4627.6318,-219.9445"/><polygon fill="#000" stroke="#000" points="4624.132 -219.944 4627.632 -229.945 4631.132 -219.945 4624.132 -219.944"/></g><g id="node53" class="node"><title>ContentwithSideNavComponent</title><polygon fill="#fb8072" stroke="#000" points="580.262 -122 377.738 -122 377.738 -86 580.262 -86 580.262 -122"/><text x="479" y="-99.8" fill="#000" font-family="Times,serif" font-size="14" text-anchor="middle">ContentwithSideNavComponent</text></g><g id="edge54" class="edge"><title>SharedModule-&gt;ContentwithSideNavComponent</title><path fill="none" stroke="#000" stroke-dasharray="5 2" d="M950.3945,-161.9672C950.3945,-155.1474 950.3945,-149 950.3945,-149 950.3945,-149 520,-149 520,-149 520,-149 520,-132.0439 520,-132.0439"/><polygon fill="#000" stroke="#000" points="523.5 -132.044 520 -122.044 516.5 -132.044 523.5 -132.044"/></g><g id="node54" class="node"><title>ErrorNotFoundComponent</title><polygon fill="#fb8072" stroke="#000" points="897.647 -122 726.353 -122 726.353 -86 897.647 -86 897.647 -122"/><text x="812" y="-99.8" fill="#000" font-family="Times,serif" font-size="14" text-anchor="middle">ErrorNotFoundComponent</text></g><g id="edge55" class="edge"><title>SharedModule-&gt;ErrorNotFoundComponent</title><path fill="none" stroke="#000" stroke-dasharray="5 2" d="M925.7384,-180C919.184,-180 914.6736,-180 914.6736,-180 914.6736,-180 914.6736,-104 914.6736,-104 914.6736,-104 907.7191,-104 907.7191,-104"/><polygon fill="#000" stroke="#000" points="907.719 -100.5 897.719 -104 907.719 -107.5 907.719 -100.5"/></g><g id="node55" class="node"><title>MaterialModule</title><polygon fill="#fb8072" stroke="#000" points="708.472 -122 597.528 -122 597.528 -86 708.472 -86 708.472 -122"/><text x="653" y="-99.8" fill="#000" font-family="Times,serif" font-size="14" text-anchor="middle">MaterialModule</text></g><g id="edge56" class="edge"><title>SharedModule-&gt;MaterialModule</title><path fill="none" stroke="#000" stroke-dasharray="5 2" d="M975,-161.8495C975,-149.7292 975,-136 975,-136 975,-136 653,-136 653,-136 653,-136 653,-132.2434 653,-132.2434"/><polygon fill="#000" stroke="#000" points="656.5 -132.243 653 -122.243 649.5 -132.243 656.5 -132.243"/></g><g id="node8" class="node"><title>AboutService</title><ellipse cx="88" cy="-180" fill="#fdb462" stroke="#000" rx="64.265" ry="18"/><text x="88" y="-175.8" fill="#000" font-family="Times,serif" font-size="14" text-anchor="middle">AboutService</text></g><g id="edge7" class="edge"><title>AboutService-&gt;AboutModule</title><path fill="none" stroke="#000" d="M88,-198.2479C88,-221.0179 88,-257 88,-257 88,-257 462.9461,-257 462.9461,-257"/><polygon fill="#000" stroke="#000" points="462.946 -260.5 472.946 -257 462.946 -253.5 462.946 -260.5"/></g><g id="node9" class="node"><title>AppComponent</title><polygon fill="#ffffb3" stroke="#000" points="1629.94 -266 1524.06 -266 1524.06 -230 1629.94 -230 1629.94 -266"/><text x="1577" y="-243.8" fill="#000" font-family="Times,serif" font-size="14" text-anchor="middle">AppComponent</text></g><g id="edge8" class="edge"><title>AppComponent-&gt;AppModule</title><path fill="none" stroke="#000" d="M1577,-266.1061C1577,-285.3391 1577,-313 1577,-313 1577,-313 1500.912,-313 1500.912,-313"/><polygon fill="#000" stroke="#000" points="1500.912 -309.5 1490.912 -313 1500.912 -316.5 1500.912 -309.5"/></g><g id="node10" class="node"><title>HomeComponent</title><polygon fill="#ffffb3" stroke="#000" points="1506.545 -266 1391.455 -266 1391.455 -230 1506.545 -230 1506.545 -266"/><text x="1449" y="-243.8" fill="#000" font-family="Times,serif" font-size="14" text-anchor="middle">HomeComponent</text></g><g id="edge9" class="edge"><title>HomeComponent-&gt;AppModule</title><path fill="none" stroke="#000" d="M1449,-266.2228C1449,-266.2228 1449,-287.7269 1449,-287.7269"/><polygon fill="#000" stroke="#000" points="1445.5 -287.727 1449 -297.727 1452.5 -287.727 1445.5 -287.727"/></g><g id="node11" class="node"><title>HoursDialogComponent</title><polygon fill="#ffffb3" stroke="#000" points="1372.647 -266 1219.353 -266 1219.353 -230 1372.647 -230 1372.647 -266"/><text x="1296" y="-243.8" fill="#000" font-family="Times,serif" font-size="14" text-anchor="middle">HoursDialogComponent</text></g><g id="edge10" class="edge"><title>HoursDialogComponent-&gt;AppModule</title><path fill="none" stroke="#000" d="M1296,-266.0225C1296,-283.3734 1296,-307 1296,-307 1296,-307 1397.1921,-307 1397.1921,-307"/><polygon fill="#000" stroke="#000" points="1397.192 -310.5 1407.192 -307 1397.192 -303.5 1397.192 -310.5"/></g><g id="node12" class="node"><title>OpenSignComponent</title><polygon fill="#ffffb3" stroke="#000" points="1201.827 -266 1064.173 -266 1064.173 -230 1201.827 -230 1201.827 -266"/><text x="1133" y="-243.8" fill="#000" font-family="Times,serif" font-size="14" text-anchor="middle">OpenSignComponent</text></g><g id="edge11" class="edge"><title>OpenSignComponent-&gt;AppModule</title><path fill="none" stroke="#000" d="M1133,-266.2228C1133,-286.3652 1133,-316 1133,-316 1133,-316 1397.0376,-316 1397.0376,-316"/><polygon fill="#000" stroke="#000" points="1397.038 -319.5 1407.038 -316 1397.038 -312.5 1397.038 -319.5"/></g><g id="node16" class="node"><title>AppComponent</title><polygon fill="#80b1d3" stroke="#000" points="1503.439 -402 1394.561 -402 1394.561 -366 1503.439 -366 1503.439 -402"/><text x="1449" y="-379.8" fill="#000" font-family="Times,serif" font-size="14" text-anchor="middle">AppComponent</text></g><g id="edge15" class="edge"><title>AppModule-&gt;AppComponent</title><path fill="none" stroke="#000" stroke-dasharray="1 5" d="M1449,-334.2228C1449,-334.2228 1449,-355.7269 1449,-355.7269"/><polygon fill="#000" stroke="#000" points="1445.5 -355.727 1449 -365.727 1452.5 -355.727 1445.5 -355.727"/></g><g id="node14" class="node"><title>AppRoutingModule</title><polygon fill="#8dd3c7" stroke="#000" points="1782.274 -266 1779.274 -270 1758.274 -270 1755.274 -266 1653.726 -266 1653.726 -230 1782.274 -230 1782.274 -266"/><text x="1718" y="-243.8" fill="#000" font-family="Times,serif" font-size="14" text-anchor="middle">AppRoutingModule</text></g><g id="edge12" class="edge"><title>AppRoutingModule-&gt;AppModule</title><path fill="none" stroke="#000" d="M1718,-266.1686C1718,-287.498 1718,-320 1718,-320 1718,-320 1500.7361,-320 1500.7361,-320"/><polygon fill="#000" stroke="#000" points="1500.736 -316.5 1490.736 -320 1500.736 -323.5 1500.736 -316.5"/></g><g id="edge13" class="edge"><title>CoreModule-&gt;AppModule</title><path fill="none" stroke="#000" d="M1852.6762,-266.3228C1852.6762,-289.6602 1852.6762,-327 1852.6762,-327 1852.6762,-327 1500.68,-327 1500.68,-327"/><polygon fill="#000" stroke="#000" points="1500.68 -323.5 1490.68 -327 1500.68 -330.5 1500.68 -323.5"/></g><g id="node29" class="node"><title>LoginComponent</title><polygon fill="#fb8072" stroke="#000" points="2189.276 -334 2070.724 -334 2070.724 -298 2189.276 -298 2189.276 -334"/><text x="2130" y="-311.8" fill="#000" font-family="Times,serif" font-size="14" text-anchor="middle">LoginComponent</text></g><g id="edge29" class="edge"><title>CoreModule-&gt;LoginComponent</title><path fill="none" stroke="#000" stroke-dasharray="5 2" d="M1887.4146,-257C1965.1149,-257 2119.9108,-257 2119.9108,-257 2119.9108,-257 2119.9108,-287.9775 2119.9108,-287.9775"/><polygon fill="#000" stroke="#000" points="2116.411 -287.977 2119.911 -297.978 2123.411 -287.978 2116.411 -287.977"/></g><g id="node30" class="node"><title>NavbarComponent</title><polygon fill="#fb8072" stroke="#000" points="2053.029 -334 1926.971 -334 1926.971 -298 2053.029 -298 2053.029 -334"/><text x="1990" y="-311.8" fill="#000" font-family="Times,serif" font-size="14" text-anchor="middle">NavbarComponent</text></g><g id="edge30" class="edge"><title>CoreModule-&gt;NavbarComponent</title><path fill="none" stroke="#000" stroke-dasharray="5 2" d="M1870.0285,-266.0336C1870.0285,-283.0597 1870.0285,-306 1870.0285,-306 1870.0285,-306 1916.8522,-306 1916.8522,-306"/><polygon fill="#000" stroke="#000" points="1916.852 -309.5 1926.852 -306 1916.852 -302.5 1916.852 -309.5"/></g><g id="node17" class="node"><title>CalendarComponent</title><polygon fill="#ffffb3" stroke="#000" points="2668.864 -198 2537.136 -198 2537.136 -162 2668.864 -162 2668.864 -198"/><text x="2603" y="-175.8" fill="#000" font-family="Times,serif" font-size="14" text-anchor="middle">CalendarComponent</text></g><g id="edge16" class="edge"><title>CalendarComponent-&gt;CalendarModule</title><path fill="none" stroke="#000" d="M2603,-198.2921C2603,-220.2057 2603,-254 2603,-254 2603,-254 2289.1099,-254 2289.1099,-254"/><polygon fill="#000" stroke="#000" points="2289.11 -250.5 2279.11 -254 2289.11 -257.5 2289.11 -250.5"/></g><g id="node18" class="node"><title>DayComponent</title><polygon fill="#ffffb3" stroke="#000" points="2519.154 -198 2414.846 -198 2414.846 -162 2519.154 -162 2519.154 -198"/><text x="2467" y="-175.8" fill="#000" font-family="Times,serif" font-size="14" text-anchor="middle">DayComponent</text></g><g id="edge17" class="edge"><title>DayComponent-&gt;CalendarModule</title><path fill="none" stroke="#000" d="M2441.5305,-198.2667C2441.5305,-216.5552 2441.5305,-242 2441.5305,-242 2441.5305,-242 2289.1733,-242 2289.1733,-242"/><polygon fill="#000" stroke="#000" points="2289.173 -238.5 2279.173 -242 2289.173 -245.5 2289.173 -238.5"/></g><g id="node20" class="node"><title>CalendarRoutingModule</title><polygon fill="#8dd3c7" stroke="#000" points="2390.699 -198 2387.699 -202 2366.699 -202 2363.699 -198 2235.301 -198 2235.301 -162 2390.699 -162 2390.699 -198"/><text x="2313" y="-175.8" fill="#000" font-family="Times,serif" font-size="14" text-anchor="middle">CalendarRoutingModule</text></g><g id="edge18" class="edge"><title>CalendarRoutingModule-&gt;CalendarModule</title><path fill="none" stroke="#000" d="M2257.2206,-198.2228C2257.2206,-198.2228 2257.2206,-219.7269 2257.2206,-219.7269"/><polygon fill="#000" stroke="#000" points="2253.721 -219.727 2257.221 -229.727 2260.721 -219.727 2253.721 -219.727"/></g><g id="node21" class="node"><title>CalendarService</title><ellipse cx="2136" cy="-180" fill="#fdb462" stroke="#000" rx="74.696" ry="18"/><text x="2136" y="-175.8" fill="#000" font-family="Times,serif" font-size="14" text-anchor="middle">CalendarService</text></g><g id="edge20" class="edge"><title>CalendarService-&gt;CalendarModule</title><path fill="none" stroke="#000" d="M2189.9035,-192.7903C2189.9035,-192.7903 2189.9035,-219.8777 2189.9035,-219.8777"/><polygon fill="#000" stroke="#000" points="2186.404 -219.878 2189.903 -229.878 2193.404 -219.878 2186.404 -219.878"/></g><g id="node22" class="node"><title>DateService</title><ellipse cx="1985" cy="-180" fill="#fdb462" stroke="#000" rx="58.441" ry="18"/><text x="1985" y="-175.8" fill="#000" font-family="Times,serif" font-size="14" text-anchor="middle">DateService</text></g><g id="edge21" class="edge"><title>DateService-&gt;CalendarModule</title><path fill="none" stroke="#000" d="M1985.103,-198.0225C1985.103,-215.3734 1985.103,-239 1985.103,-239 1985.103,-239 2158.8922,-239 2158.8922,-239"/><polygon fill="#000" stroke="#000" points="2158.892 -242.5 2168.892 -239 2158.892 -235.5 2158.892 -242.5"/></g><g id="node23" class="node"><title>ContactComponent</title><polygon fill="#ffffb3" stroke="#000" points="3178.38 -198 3053.62 -198 3053.62 -162 3178.38 -162 3178.38 -198"/><text x="3116" y="-175.8" fill="#000" font-family="Times,serif" font-size="14" text-anchor="middle">ContactComponent</text></g><g id="edge22" class="edge"><title>ContactComponent-&gt;ContactModule</title><path fill="none" stroke="#000" d="M3116,-198.2667C3116,-216.5552 3116,-242 3116,-242 3116,-242 2931.5697,-242 2931.5697,-242"/><polygon fill="#000" stroke="#000" points="2931.57 -238.5 2921.57 -242 2931.57 -245.5 2931.57 -238.5"/></g><g id="node24" class="node"><title>ContactMainComponent</title><polygon fill="#ffffb3" stroke="#000" points="3035.43 -198 2880.57 -198 2880.57 -162 3035.43 -162 3035.43 -198"/><text x="2958" y="-175.8" fill="#000" font-family="Times,serif" font-size="14" text-anchor="middle">ContactMainComponent</text></g><g id="edge23" class="edge"><title>ContactMainComponent-&gt;ContactModule</title><path fill="none" stroke="#000" d="M2901.1669,-198.2228C2901.1669,-198.2228 2901.1669,-219.7269 2901.1669,-219.7269"/><polygon fill="#000" stroke="#000" points="2897.667 -219.727 2901.167 -229.727 2904.667 -219.727 2897.667 -219.727"/></g><g id="node26" class="node"><title>ContactRoutingModule</title><polygon fill="#8dd3c7" stroke="#000" points="2857.215 -198 2854.215 -202 2833.215 -202 2830.215 -198 2708.785 -198 2708.785 -162 2857.215 -162 2857.215 -198"/><text x="2783" y="-175.8" fill="#000" font-family="Times,serif" font-size="14" text-anchor="middle">ContactRoutingModule</text></g><g id="edge24" class="edge"><title>ContactRoutingModule-&gt;ContactModule</title><path fill="none" stroke="#000" d="M2844.2221,-198.2228C2844.2221,-198.2228 2844.2221,-219.7269 2844.2221,-219.7269"/><polygon fill="#000" stroke="#000" points="2840.722 -219.727 2844.222 -229.727 2847.722 -219.727 2840.722 -219.727"/></g><g id="node27" class="node"><title>LoginComponent</title><polygon fill="#ffffb3" stroke="#000" points="2468.276 -334 2353.724 -334 2353.724 -298 2468.276 -298 2468.276 -334"/><text x="2411" y="-311.8" fill="#000" font-family="Times,serif" font-size="14" text-anchor="middle">LoginComponent</text></g><g id="edge26" class="edge"><title>LoginComponent-&gt;CoreModule</title><path fill="none" stroke="#000" d="M2372.1059,-297.8701C2372.1059,-287.6855 2372.1059,-277 2372.1059,-277 2372.1059,-277 1835.3238,-277 1835.3238,-277 1835.3238,-277 1835.3238,-275.9201 1835.3238,-275.9201"/><polygon fill="#000" stroke="#000" points="1838.824 -276.201 1835.324 -266.202 1831.824 -276.202 1838.824 -276.201"/></g><g id="node28" class="node"><title>NavbarComponent</title><polygon fill="#ffffb3" stroke="#000" points="2335.03 -334 2212.97 -334 2212.97 -298 2335.03 -298 2335.03 -334"/><text x="2274" y="-311.8" fill="#000" font-family="Times,serif" font-size="14" text-anchor="middle">NavbarComponent</text></g><g id="edge27" class="edge"><title>NavbarComponent-&gt;CoreModule</title><path fill="none" stroke="#000" d="M2245.8881,-297.793C2245.8881,-292.4451 2245.8881,-288 2245.8881,-288 2245.8881,-288 1817.9715,-288 1817.9715,-288 1817.9715,-288 1817.9715,-276.1274 1817.9715,-276.1274"/><polygon fill="#000" stroke="#000" points="1821.472 -276.127 1817.972 -266.127 1814.472 -276.127 1821.472 -276.127"/></g><g id="node31" class="node"><title>GameOptionsComponent</title><polygon fill="#ffffb3" stroke="#000" points="3841.591 -198 3682.409 -198 3682.409 -162 3841.591 -162 3841.591 -198"/><text x="3762" y="-175.8" fill="#000" font-family="Times,serif" font-size="14" text-anchor="middle">GameOptionsComponent</text></g><g id="edge31" class="edge"><title>GameOptionsComponent-&gt;GamesModule</title><path fill="none" stroke="#000" d="M3762,-198.0091C3762,-214.0494 3762,-235 3762,-235 3762,-235 3585.4733,-235 3585.4733,-235"/><polygon fill="#000" stroke="#000" points="3585.473 -231.5 3575.473 -235 3585.473 -238.5 3585.473 -231.5"/></g><g id="node32" class="node"><title>GamesComponent</title><polygon fill="#ffffb3" stroke="#000" points="3664.204 -198 3543.796 -198 3543.796 -162 3664.204 -162 3664.204 -198"/><text x="3604" y="-175.8" fill="#000" font-family="Times,serif" font-size="14" text-anchor="middle">GamesComponent</text></g><g id="edge32" class="edge"><title>GamesComponent-&gt;GamesModule</title><path fill="none" stroke="#000" d="M3559.5544,-198.2228C3559.5544,-198.2228 3559.5544,-219.7269 3559.5544,-219.7269"/><polygon fill="#000" stroke="#000" points="3556.054 -219.727 3559.554 -229.727 3563.054 -219.727 3556.054 -219.727"/></g><g id="node33" class="node"><title>MainComponent</title><polygon fill="#ffffb3" stroke="#000" points="3970.382 -198 3859.618 -198 3859.618 -162 3970.382 -162 3970.382 -198"/><text x="3915" y="-175.8" fill="#000" font-family="Times,serif" font-size="14" text-anchor="middle">MainComponent</text></g><g id="edge33" class="edge"><title>MainComponent-&gt;GamesModule</title><path fill="none" stroke="#000" d="M3896.5196,-198.0225C3896.5196,-215.3734 3896.5196,-239 3896.5196,-239 3896.5196,-239 3585.5855,-239 3585.5855,-239"/><polygon fill="#000" stroke="#000" points="3585.586 -235.5 3575.586 -239 3585.585 -242.5 3585.586 -235.5"/></g><g id="edge41" class="edge"><title>MainComponent-&gt;MenuModule</title><path fill="none" stroke="#000" d="M3933.4804,-198.1985C3933.4804,-222.3563 3933.4804,-262 3933.4804,-262 3933.4804,-262 4586.7201,-262 4586.7201,-262"/><polygon fill="#000" stroke="#000" points="4586.72 -265.5 4596.72 -262 4586.72 -258.5 4586.72 -265.5"/></g><g id="node35" class="node"><title>GamesRoutingModule</title><polygon fill="#8dd3c7" stroke="#000" points="3519.539 -198 3516.539 -202 3495.539 -202 3492.539 -198 3376.461 -198 3376.461 -162 3519.539 -162 3519.539 -198"/><text x="3448" y="-175.8" fill="#000" font-family="Times,serif" font-size="14" text-anchor="middle">GamesRoutingModule</text></g><g id="edge34" class="edge"><title>GamesRoutingModule-&gt;GamesModule</title><path fill="none" stroke="#000" d="M3505.4427,-198.2228C3505.4427,-198.2228 3505.4427,-219.7269 3505.4427,-219.7269"/><polygon fill="#000" stroke="#000" points="3501.943 -219.727 3505.443 -229.727 3508.943 -219.727 3501.943 -219.727"/></g><g id="node36" class="node"><title>GamesService</title><ellipse cx="3285" cy="-180" fill="#fdb462" stroke="#000" rx="66.609" ry="18"/><text x="3285" y="-175.8" fill="#000" font-family="Times,serif" font-size="14" text-anchor="middle">GamesService</text></g><g id="edge36" class="edge"><title>GamesService-&gt;GamesModule</title><path fill="none" stroke="#000" d="M3285,-198.2921C3285,-220.2057 3285,-254 3285,-254 3285,-254 3466.6485,-254 3466.6485,-254"/><polygon fill="#000" stroke="#000" points="3466.648 -257.5 3476.648 -254 3466.648 -250.5 3466.648 -257.5"/></g><g id="node37" class="node"><title>BottledComponent</title><polygon fill="#ffffb3" stroke="#000" points="4444.056 -198 4321.944 -198 4321.944 -162 4444.056 -162 4444.056 -198"/><text x="4383" y="-175.8" fill="#000" font-family="Times,serif" font-size="14" text-anchor="middle">BottledComponent</text></g><g id="edge37" class="edge"><title>BottledComponent-&gt;MenuModule</title><path fill="none" stroke="#000" d="M4383,-198.2228C4383,-218.3652 4383,-248 4383,-248 4383,-248 4586.8168,-248 4586.8168,-248"/><polygon fill="#000" stroke="#000" points="4586.817 -251.5 4596.817 -248 4586.817 -244.5 4586.817 -251.5"/></g><g id="node38" class="node"><title>DrinkComponent</title><polygon fill="#ffffb3" stroke="#000" points="5647.99 -198 5534.01 -198 5534.01 -162 5647.99 -162 5647.99 -198"/><text x="5591" y="-175.8" fill="#000" font-family="Times,serif" font-size="14" text-anchor="middle">DrinkComponent</text></g><g id="edge38" class="edge"><title>DrinkComponent-&gt;MenuModule</title><path fill="none" stroke="#000" d="M5591,-198.3802C5591,-222.2785 5591,-261 5591,-261 5591,-261 4699.3658,-261 4699.3658,-261"/><polygon fill="#000" stroke="#000" points="4699.366 -257.5 4689.366 -261 4699.366 -264.5 4699.366 -257.5"/></g><g id="node39" class="node"><title>FoodItemwFriesComponent</title><polygon fill="#ffffb3" stroke="#000" points="5515.871 -198 5342.129 -198 5342.129 -162 5515.871 -162 5515.871 -198"/><text x="5429" y="-175.8" fill="#000" font-family="Times,serif" font-size="14" text-anchor="middle">FoodItemwFriesComponent</text></g><g id="edge39" class="edge"><title>FoodItemwFriesComponent-&gt;MenuModule</title><path fill="none" stroke="#000" d="M5429,-198.0109C5429,-220.4852 5429,-256 5429,-256 5429,-256 4699.2335,-256 4699.2335,-256"/><polygon fill="#000" stroke="#000" points="4699.234 -252.5 4689.234 -256 4699.233 -259.5 4699.234 -252.5"/></g><g id="node40" class="node"><title>LiquorsComponent</title><polygon fill="#ffffb3" stroke="#000" points="5324.381 -198 5199.619 -198 5199.619 -162 5324.381 -162 5324.381 -198"/><text x="5262" y="-175.8" fill="#000" font-family="Times,serif" font-size="14" text-anchor="middle">LiquorsComponent</text></g><g id="edge40" class="edge"><title>LiquorsComponent-&gt;MenuModule</title><path fill="none" stroke="#000" d="M5262,-198.2843C5262,-219.3211 5262,-251 5262,-251 5262,-251 4699.2725,-251 4699.2725,-251"/><polygon fill="#000" stroke="#000" points="4699.273 -247.5 4689.273 -251 4699.272 -254.5 4699.273 -247.5"/></g><g id="node41" class="node"><title>MenuComponent</title><polygon fill="#ffffb3" stroke="#000" points="5181.992 -198 5068.008 -198 5068.008 -162 5181.992 -162 5181.992 -198"/><text x="5125" y="-175.8" fill="#000" font-family="Times,serif" font-size="14" text-anchor="middle">MenuComponent</text></g><g id="edge42" class="edge"><title>MenuComponent-&gt;MenuModule</title><path fill="none" stroke="#000" d="M5125,-198.0348C5125,-217.5762 5125,-246 5125,-246 5125,-246 4699.2162,-246 4699.2162,-246"/><polygon fill="#000" stroke="#000" points="4699.216 -242.5 4689.216 -246 4699.216 -249.5 4699.216 -242.5"/></g><g id="node42" class="node"><title>MenuSectionComponent</title><polygon fill="#ffffb3" stroke="#000" points="5049.985 -198 4894.015 -198 4894.015 -162 5049.985 -162 5049.985 -198"/><text x="4972" y="-175.8" fill="#000" font-family="Times,serif" font-size="14" text-anchor="middle">MenuSectionComponent</text></g><g id="edge43" class="edge"><title>MenuSectionComponent-&gt;MenuModule</title><path fill="none" stroke="#000" d="M4972,-198.302C4972,-216.2699 4972,-241 4972,-241 4972,-241 4699.4399,-241 4699.4399,-241"/><polygon fill="#000" stroke="#000" points="4699.44 -237.5 4689.44 -241 4699.44 -244.5 4699.44 -237.5"/></g><g id="node43" class="node"><title>MiscFoodItemComponent</title><polygon fill="#ffffb3" stroke="#000" points="4875.766 -198 4712.234 -198 4712.234 -162 4875.766 -162 4875.766 -198"/><text x="4794" y="-175.8" fill="#000" font-family="Times,serif" font-size="14" text-anchor="middle">MiscFoodItemComponent</text></g><g id="edge44" class="edge"><title>MiscFoodItemComponent-&gt;MenuModule</title><path fill="none" stroke="#000" d="M4794,-198.027C4794,-214.3976 4794,-236 4794,-236 4794,-236 4699.1255,-236 4699.1255,-236"/><polygon fill="#000" stroke="#000" points="4699.126 -232.5 4689.126 -236 4699.125 -239.5 4699.126 -232.5"/></g><g id="node44" class="node"><title>TapComponent</title><polygon fill="#ffffb3" stroke="#000" points="4694.6 -198 4591.4 -198 4591.4 -162 4694.6 -162 4694.6 -198"/><text x="4643" y="-175.8" fill="#000" font-family="Times,serif" font-size="14" text-anchor="middle">TapComponent</text></g><g id="edge45" class="edge"><title>TapComponent-&gt;MenuModule</title><path fill="none" stroke="#000" d="M4658.3682,-198.2228C4658.3682,-198.2228 4658.3682,-219.7269 4658.3682,-219.7269"/><polygon fill="#000" stroke="#000" points="4654.868 -219.727 4658.368 -229.727 4661.868 -219.727 4654.868 -219.727"/></g><g id="node45" class="node"><title>WineComponent</title><polygon fill="#ffffb3" stroke="#000" points="4573.653 -198 4462.347 -198 4462.347 -162 4573.653 -162 4573.653 -198"/><text x="4518" y="-175.8" fill="#000" font-family="Times,serif" font-size="14" text-anchor="middle">WineComponent</text></g><g id="edge46" class="edge"><title>WineComponent-&gt;MenuModule</title><path fill="none" stroke="#000" d="M4518,-198.1686C4518,-217.0898 4518,-244 4518,-244 4518,-244 4586.8098,-244 4586.8098,-244"/><polygon fill="#000" stroke="#000" points="4586.81 -247.5 4596.81 -244 4586.81 -240.5 4586.81 -247.5"/></g><g id="node47" class="node"><title>MenuRoutingModule</title><polygon fill="#8dd3c7" stroke="#000" points="4297.827 -198 4294.827 -202 4273.827 -202 4270.827 -198 4160.173 -198 4160.173 -162 4297.827 -162 4297.827 -198"/><text x="4229" y="-175.8" fill="#000" font-family="Times,serif" font-size="14" text-anchor="middle">MenuRoutingModule</text></g><g id="edge47" class="edge"><title>MenuRoutingModule-&gt;MenuModule</title><path fill="none" stroke="#000" d="M4229,-198.0449C4229,-219.6623 4229,-253 4229,-253 4229,-253 4586.714,-253 4586.714,-253"/><polygon fill="#000" stroke="#000" points="4586.714 -256.5 4596.714 -253 4586.714 -249.5 4586.714 -256.5"/></g><g id="node48" class="node"><title>MenuService</title><ellipse cx="4073" cy="-180" fill="#fdb462" stroke="#000" rx="62.539" ry="18"/><text x="4073" y="-175.8" fill="#000" font-family="Times,serif" font-size="14" text-anchor="middle">MenuService</text></g><g id="edge49" class="edge"><title>MenuService-&gt;MenuModule</title><path fill="none" stroke="#000" d="M4073,-198.2479C4073,-221.0179 4073,-257 4073,-257 4073,-257 4586.8373,-257 4586.8373,-257"/><polygon fill="#000" stroke="#000" points="4586.837 -260.5 4596.837 -257 4586.837 -253.5 4586.837 -260.5"/></g><g id="node49" class="node"><title>ContentwithSideNavComponent</title><polygon fill="#ffffb3" stroke="#000" points="1250.262 -122 1051.738 -122 1051.738 -86 1250.262 -86 1250.262 -122"/><text x="1151" y="-99.8" fill="#000" font-family="Times,serif" font-size="14" text-anchor="middle">ContentwithSideNavComponent</text></g><g id="edge50" class="edge"><title>ContentwithSideNavComponent-&gt;SharedModule</title><path fill="none" stroke="#000" d="M1057.9779,-122.1686C1057.9779,-141.0898 1057.9779,-168 1057.9779,-168 1057.9779,-168 1034.2276,-168 1034.2276,-168"/><polygon fill="#000" stroke="#000" points="1034.228 -164.5 1024.228 -168 1034.228 -171.5 1034.228 -164.5"/></g><g id="node50" class="node"><title>ErrorNotFoundComponent</title><polygon fill="#ffffb3" stroke="#000" points="1622.647 -122 1455.353 -122 1455.353 -86 1622.647 -86 1622.647 -122"/><text x="1539" y="-99.8" fill="#000" font-family="Times,serif" font-size="14" text-anchor="middle">ErrorNotFoundComponent</text></g><g id="edge51" class="edge"><title>ErrorNotFoundComponent-&gt;SharedModule</title><path fill="none" stroke="#000" d="M1480.9744,-122.0109C1480.9744,-144.4852 1480.9744,-180 1480.9744,-180 1480.9744,-180 1034.4362,-180 1034.4362,-180"/><polygon fill="#000" stroke="#000" points="1034.436 -176.5 1024.436 -180 1034.436 -183.5 1034.436 -176.5"/></g><g id="node51" class="node"><title>MessageDialogComponent</title><polygon fill="#ffffb3" stroke="#000" points="1437.413 -122 1268.587 -122 1268.587 -86 1437.413 -86 1437.413 -122"/><text x="1353" y="-99.8" fill="#000" font-family="Times,serif" font-size="14" text-anchor="middle">MessageDialogComponent</text></g><g id="edge52" class="edge"><title>MessageDialogComponent-&gt;SharedModule</title><path fill="none" stroke="#000" d="M1320.8086,-122.0267C1320.8086,-142.7672 1320.8086,-174 1320.8086,-174 1320.8086,-174 1034.5459,-174 1034.5459,-174"/><polygon fill="#000" stroke="#000" points="1034.546 -170.5 1024.546 -174 1034.546 -177.5 1034.546 -170.5"/></g><g id="node52" class="node"><title>MaterialModule</title><polygon fill="#8dd3c7" stroke="#000" points="1028.471 -122 1025.471 -126 1004.471 -126 1001.471 -122 921.529 -122 921.529 -86 1028.471 -86 1028.471 -122"/><text x="975" y="-99.8" fill="#000" font-family="Times,serif" font-size="14" text-anchor="middle">MaterialModule</text></g><g id="edge53" class="edge"><title>MaterialModule-&gt;SharedModule</title><path fill="none" stroke="#000" d="M999.6056,-122.0109C999.6056,-122.0109 999.6056,-151.855 999.6056,-151.855"/><polygon fill="#000" stroke="#000" points="996.106 -151.855 999.606 -161.855 1003.106 -151.855 996.106 -151.855"/></g></g></svg>