<svg xmlns="http://www.w3.org/2000/svg" xmlns:xlink="http://www.w3.org/1999/xlink" width="641pt" height="211pt" viewBox="0 0 641 211"><g id="graph0" class="graph" transform="scale(1 1) rotate(0) translate(4 207)"><title>dependencies</title><polygon fill="#fff" stroke="transparent" points="-4 4 -4 -207 637 -207 637 4 -4 4"/><text x="295.509" y="-42.4" fill="#000" font-family="sans-serif" font-size="14" font-weight="bold" text-anchor="start">Legend</text><polygon fill="#ffffb3" stroke="transparent" points="82.5 -10 82.5 -30 102.5 -30 102.5 -10 82.5 -10"/><text x="106.129" y="-15.4" fill="#000" font-family="sans-serif" font-size="14" text-anchor="start">Declarations</text><polygon fill="#8dd3c7" stroke="transparent" points="195.5 -10 195.5 -30 215.5 -30 215.5 -10 195.5 -10"/><text x="219.225" y="-15.4" fill="#000" font-family="sans-serif" font-size="14" text-anchor="start">Module</text><polygon fill="#80b1d3" stroke="transparent" points="281.5 -10 281.5 -30 301.5 -30 301.5 -10 281.5 -10"/><text x="305.281" y="-15.4" fill="#000" font-family="sans-serif" font-size="14" text-anchor="start">Bootstrap</text><polygon fill="#fdb462" stroke="transparent" points="378.5 -10 378.5 -30 398.5 -30 398.5 -10 378.5 -10"/><text x="402.173" y="-15.4" fill="#000" font-family="sans-serif" font-size="14" text-anchor="start">Providers</text><polygon fill="#fb8072" stroke="transparent" points="474.5 -10 474.5 -30 494.5 -30 494.5 -10 474.5 -10"/><text x="498.226" y="-15.4" fill="#000" font-family="sans-serif" font-size="14" text-anchor="start">Exports</text><g id="clust1" class="cluster"><title>cluster_ContactModule</title><polygon fill="none" stroke="#000" stroke-dasharray="1 5" points="8 -70 8 -195 625 -195 625 -70 8 -70"/></g><g id="clust2" class="cluster"><title>cluster_ContactModule_declarations</title><polygon fill="none" stroke="#000" points="304 -78 304 -130 617 -130 617 -78 304 -78"/></g><g id="clust5" class="cluster"><title>cluster_ContactModule_imports</title><polygon fill="none" stroke="#000" points="16 -78 16 -130 296 -130 296 -78 16 -78"/></g><g id="node1" class="node"><title>ContactComponent</title><polygon fill="#ffffb3" stroke="#000" points="609.38 -122 484.62 -122 484.62 -86 609.38 -86 609.38 -122"/><text x="547" y="-99.8" fill="#000" font-family="Times,serif" font-size="14" text-anchor="middle">ContactComponent</text></g><g id="node3" class="node"><title>ContactModule</title><polygon fill="#8dd3c7" stroke="#000" points="352.597 -187 349.597 -191 328.597 -191 325.597 -187 249.403 -187 249.403 -151 352.597 -151 352.597 -187"/><text x="301" y="-164.8" fill="#000" font-family="Times,serif" font-size="14" text-anchor="middle">ContactModule</text></g><g id="edge1" class="edge"><title>ContactComponent-&gt;ContactModule</title><path fill="none" stroke="#000" d="M547,-122.1061C547,-141.3391 547,-169 547,-169 547,-169 362.5697,-169 362.5697,-169"/><polygon fill="#000" stroke="#000" points="362.57 -165.5 352.57 -169 362.57 -172.5 362.57 -165.5"/></g><g id="node2" class="node"><title>ContactMainComponent</title><polygon fill="#ffffb3" stroke="#000" points="466.43 -122 311.57 -122 311.57 -86 466.43 -86 466.43 -122"/><text x="389" y="-99.8" fill="#000" font-family="Times,serif" font-size="14" text-anchor="middle">ContactMainComponent</text></g><g id="edge2" class="edge"><title>ContactMainComponent-&gt;ContactModule</title><path fill="none" stroke="#000" d="M332.1669,-122.1061C332.1669,-122.1061 332.1669,-140.991 332.1669,-140.991"/><polygon fill="#000" stroke="#000" points="328.667 -140.991 332.167 -150.991 335.667 -140.991 328.667 -140.991"/></g><g id="node4" class="node"><title>ContactRoutingModule</title><polygon fill="#8dd3c7" stroke="#000" points="288.215 -122 285.215 -126 264.215 -126 261.215 -122 139.785 -122 139.785 -86 288.215 -86 288.215 -122"/><text x="214" y="-99.8" fill="#000" font-family="Times,serif" font-size="14" text-anchor="middle">ContactRoutingModule</text></g><g id="edge3" class="edge"><title>ContactRoutingModule-&gt;ContactModule</title><path fill="none" stroke="#000" d="M268.7795,-122.1061C268.7795,-122.1061 268.7795,-140.991 268.7795,-140.991"/><polygon fill="#000" stroke="#000" points="265.279 -140.991 268.779 -150.991 272.279 -140.991 265.279 -140.991"/></g><g id="node5" class="node"><title>SharedModule</title><polygon fill="#8dd3c7" stroke="#000" points="122.423 -122 119.423 -126 98.423 -126 95.423 -122 23.577 -122 23.577 -86 122.423 -86 122.423 -122"/><text x="73" y="-99.8" fill="#000" font-family="Times,serif" font-size="14" text-anchor="middle">SharedModule</text></g><g id="edge4" class="edge"><title>SharedModule-&gt;ContactModule</title><path fill="none" stroke="#000" d="M73,-122.1061C73,-141.3391 73,-169 73,-169 73,-169 239.2633,-169 239.2633,-169"/><polygon fill="#000" stroke="#000" points="239.263 -172.5 249.263 -169 239.263 -165.5 239.263 -172.5"/></g></g></svg>