<?xml version="1.0" encoding="UTF-8" standalone="no"?>
<!DOCTYPE svg PUBLIC "-//W3C//DTD SVG 1.1//EN"
 "http://www.w3.org/Graphics/SVG/1.1/DTD/svg11.dtd">
<!-- Generated by graphviz version 2.40.1 (20161225.0304)
 -->
<!-- Title: dependencies Pages: 1 -->
<svg width="641pt" height="211pt"
 viewBox="0.00 0.00 641.00 211.00" xmlns="http://www.w3.org/2000/svg" xmlns:xlink="http://www.w3.org/1999/xlink">
<g id="graph0" class="graph" transform="scale(1 1) rotate(0) translate(4 207)">
<title>dependencies</title>
<polygon fill="#ffffff" stroke="transparent" points="-4,4 -4,-207 637,-207 637,4 -4,4"/>
<text text-anchor="start" x="295.5091" y="-42.4" font-family="sans-serif" font-weight="bold" font-size="14.00" fill="#000000">Legend</text>
<polygon fill="#ffffb3" stroke="transparent" points="82.5,-10 82.5,-30 102.5,-30 102.5,-10 82.5,-10"/>
<text text-anchor="start" x="106.129" y="-15.4" font-family="sans-serif" font-size="14.00" fill="#000000"> &#160;Declarations</text>
<polygon fill="#8dd3c7" stroke="transparent" points="195.5,-10 195.5,-30 215.5,-30 215.5,-10 195.5,-10"/>
<text text-anchor="start" x="219.2251" y="-15.4" font-family="sans-serif" font-size="14.00" fill="#000000"> &#160;Module</text>
<polygon fill="#80b1d3" stroke="transparent" points="281.5,-10 281.5,-30 301.5,-30 301.5,-10 281.5,-10"/>
<text text-anchor="start" x="305.2812" y="-15.4" font-family="sans-serif" font-size="14.00" fill="#000000"> &#160;Bootstrap</text>
<polygon fill="#fdb462" stroke="transparent" points="378.5,-10 378.5,-30 398.5,-30 398.5,-10 378.5,-10"/>
<text text-anchor="start" x="402.1732" y="-15.4" font-family="sans-serif" font-size="14.00" fill="#000000"> &#160;Providers</text>
<polygon fill="#fb8072" stroke="transparent" points="474.5,-10 474.5,-30 494.5,-30 494.5,-10 474.5,-10"/>
<text text-anchor="start" x="498.2258" y="-15.4" font-family="sans-serif" font-size="14.00" fill="#000000"> &#160;Exports</text>
<g id="clust1" class="cluster">
<title>cluster_ContactModule</title>
<polygon fill="none" stroke="#000000" stroke-dasharray="1,5" points="8,-70 8,-195 625,-195 625,-70 8,-70"/>
</g>
<g id="clust2" class="cluster">
<title>cluster_ContactModule_declarations</title>
<polygon fill="none" stroke="#000000" points="304,-78 304,-130 617,-130 617,-78 304,-78"/>
</g>
<g id="clust5" class="cluster">
<title>cluster_ContactModule_imports</title>
<polygon fill="none" stroke="#000000" points="16,-78 16,-130 296,-130 296,-78 16,-78"/>
</g>
<!-- ContactComponent -->
<g id="node1" class="node">
<title>ContactComponent</title>
<polygon fill="#ffffb3" stroke="#000000" points="609.3795,-122 484.6205,-122 484.6205,-86 609.3795,-86 609.3795,-122"/>
<text text-anchor="middle" x="547" y="-99.8" font-family="Times,serif" font-size="14.00" fill="#000000">ContactComponent</text>
</g>
<!-- ContactModule -->
<g id="node3" class="node">
<title>ContactModule</title>
<polygon fill="#8dd3c7" stroke="#000000" points="352.5968,-187 349.5968,-191 328.5968,-191 325.5968,-187 249.4032,-187 249.4032,-151 352.5968,-151 352.5968,-187"/>
<text text-anchor="middle" x="301" y="-164.8" font-family="Times,serif" font-size="14.00" fill="#000000">ContactModule</text>
</g>
<!-- ContactComponent&#45;&gt;ContactModule -->
<g id="edge1" class="edge">
<title>ContactComponent&#45;&gt;ContactModule</title>
<path fill="none" stroke="#000000" d="M547,-122.1061C547,-141.3391 547,-169 547,-169 547,-169 362.5697,-169 362.5697,-169"/>
<polygon fill="#000000" stroke="#000000" points="362.5697,-165.5001 352.5697,-169 362.5696,-172.5001 362.5697,-165.5001"/>
</g>
<!-- ContactMainComponent -->
<g id="node2" class="node">
<title>ContactMainComponent</title>
<polygon fill="#ffffb3" stroke="#000000" points="466.4298,-122 311.5702,-122 311.5702,-86 466.4298,-86 466.4298,-122"/>
<text text-anchor="middle" x="389" y="-99.8" font-family="Times,serif" font-size="14.00" fill="#000000">ContactMainComponent</text>
</g>
<!-- ContactMainComponent&#45;&gt;ContactModule -->
<g id="edge2" class="edge">
<title>ContactMainComponent&#45;&gt;ContactModule</title>
<path fill="none" stroke="#000000" d="M332.1669,-122.1061C332.1669,-122.1061 332.1669,-140.991 332.1669,-140.991"/>
<polygon fill="#000000" stroke="#000000" points="328.667,-140.9909 332.1669,-150.991 335.667,-140.991 328.667,-140.9909"/>
</g>
<!-- ContactRoutingModule -->
<g id="node4" class="node">
<title>ContactRoutingModule</title>
<polygon fill="#8dd3c7" stroke="#000000" points="288.2148,-122 285.2148,-126 264.2148,-126 261.2148,-122 139.7852,-122 139.7852,-86 288.2148,-86 288.2148,-122"/>
<text text-anchor="middle" x="214" y="-99.8" font-family="Times,serif" font-size="14.00" fill="#000000">ContactRoutingModule</text>
</g>
<!-- ContactRoutingModule&#45;&gt;ContactModule -->
<g id="edge3" class="edge">
<title>ContactRoutingModule&#45;&gt;ContactModule</title>
<path fill="none" stroke="#000000" d="M268.7795,-122.1061C268.7795,-122.1061 268.7795,-140.991 268.7795,-140.991"/>
<polygon fill="#000000" stroke="#000000" points="265.2795,-140.9909 268.7795,-150.991 272.2795,-140.991 265.2795,-140.9909"/>
</g>
<!-- SharedModule -->
<g id="node5" class="node">
<title>SharedModule</title>
<polygon fill="#8dd3c7" stroke="#000000" points="122.4231,-122 119.4231,-126 98.4231,-126 95.4231,-122 23.5769,-122 23.5769,-86 122.4231,-86 122.4231,-122"/>
<text text-anchor="middle" x="73" y="-99.8" font-family="Times,serif" font-size="14.00" fill="#000000">SharedModule</text>
</g>
<!-- SharedModule&#45;&gt;ContactModule -->
<g id="edge4" class="edge">
<title>SharedModule&#45;&gt;ContactModule</title>
<path fill="none" stroke="#000000" d="M73,-122.1061C73,-141.3391 73,-169 73,-169 73,-169 239.2633,-169 239.2633,-169"/>
<polygon fill="#000000" stroke="#000000" points="239.2633,-172.5001 249.2633,-169 239.2632,-165.5001 239.2633,-172.5001"/>
</g>
</g>
</svg>
