<?xml version="1.0" encoding="UTF-8" standalone="no"?>
<!DOCTYPE svg PUBLIC "-//W3C//DTD SVG 1.1//EN"
 "http://www.w3.org/Graphics/SVG/1.1/DTD/svg11.dtd">
<!-- Generated by graphviz version 2.40.1 (20161225.0304)
 -->
<!-- Title: dependencies Pages: 1 -->
<svg width="996pt" height="284pt"
 viewBox="0.00 0.00 996.00 284.00" xmlns="http://www.w3.org/2000/svg" xmlns:xlink="http://www.w3.org/1999/xlink">
<g id="graph0" class="graph" transform="scale(1 1) rotate(0) translate(4 280)">
<title>dependencies</title>
<polygon fill="#ffffff" stroke="transparent" points="-4,4 -4,-280 992,-280 992,4 -4,4"/>
<text text-anchor="start" x="473.0091" y="-42.4" font-family="sans-serif" font-weight="bold" font-size="14.00" fill="#000000">Legend</text>
<polygon fill="#ffffb3" stroke="transparent" points="260,-10 260,-30 280,-30 280,-10 260,-10"/>
<text text-anchor="start" x="283.629" y="-15.4" font-family="sans-serif" font-size="14.00" fill="#000000"> &#160;Declarations</text>
<polygon fill="#8dd3c7" stroke="transparent" points="373,-10 373,-30 393,-30 393,-10 373,-10"/>
<text text-anchor="start" x="396.7251" y="-15.4" font-family="sans-serif" font-size="14.00" fill="#000000"> &#160;Module</text>
<polygon fill="#80b1d3" stroke="transparent" points="459,-10 459,-30 479,-30 479,-10 459,-10"/>
<text text-anchor="start" x="482.7812" y="-15.4" font-family="sans-serif" font-size="14.00" fill="#000000"> &#160;Bootstrap</text>
<polygon fill="#fdb462" stroke="transparent" points="556,-10 556,-30 576,-30 576,-10 556,-10"/>
<text text-anchor="start" x="579.6732" y="-15.4" font-family="sans-serif" font-size="14.00" fill="#000000"> &#160;Providers</text>
<polygon fill="#fb8072" stroke="transparent" points="652,-10 652,-30 672,-30 672,-10 652,-10"/>
<text text-anchor="start" x="675.7258" y="-15.4" font-family="sans-serif" font-size="14.00" fill="#000000"> &#160;Exports</text>
<g id="clust1" class="cluster">
<title>cluster_AppModule</title>
<polygon fill="none" stroke="#000000" stroke-dasharray="1,5" points="8,-70 8,-268 980,-268 980,-70 8,-70"/>
</g>
<g id="clust2" class="cluster">
<title>cluster_AppModule_declarations</title>
<polygon fill="none" stroke="#000000" points="390,-78 390,-130 972,-130 972,-78 390,-78"/>
</g>
<g id="clust7" class="cluster">
<title>cluster_AppModule_imports</title>
<polygon fill="none" stroke="#000000" points="16,-78 16,-130 382,-130 382,-78 16,-78"/>
</g>
<g id="clust9" class="cluster">
<title>cluster_AppModule_bootstrap</title>
<polygon fill="none" stroke="#000000" points="405,-208 405,-260 529,-260 529,-208 405,-208"/>
</g>
<!-- AppComponent -->
<g id="node1" class="node">
<title>AppComponent</title>
<polygon fill="#ffffb3" stroke="#000000" points="963.9399,-122 858.0601,-122 858.0601,-86 963.9399,-86 963.9399,-122"/>
<text text-anchor="middle" x="911" y="-99.8" font-family="Times,serif" font-size="14.00" fill="#000000">AppComponent</text>
</g>
<!-- AppModule -->
<g id="node5" class="node">
<title>AppModule</title>
<polygon fill="#8dd3c7" stroke="#000000" points="508.6571,-187 505.6571,-191 484.6571,-191 481.6571,-187 425.3429,-187 425.3429,-151 508.6571,-151 508.6571,-187"/>
<text text-anchor="middle" x="467" y="-164.8" font-family="Times,serif" font-size="14.00" fill="#000000">AppModule</text>
</g>
<!-- AppComponent&#45;&gt;AppModule -->
<g id="edge1" class="edge">
<title>AppComponent&#45;&gt;AppModule</title>
<path fill="none" stroke="#000000" d="M911,-122.2921C911,-144.2057 911,-178 911,-178 911,-178 518.7704,-178 518.7704,-178"/>
<polygon fill="#000000" stroke="#000000" points="518.7705,-174.5001 508.7704,-178 518.7704,-181.5001 518.7705,-174.5001"/>
</g>
<!-- HomeComponent -->
<g id="node2" class="node">
<title>HomeComponent</title>
<polygon fill="#ffffb3" stroke="#000000" points="840.5451,-122 725.4549,-122 725.4549,-86 840.5451,-86 840.5451,-122"/>
<text text-anchor="middle" x="783" y="-99.8" font-family="Times,serif" font-size="14.00" fill="#000000">HomeComponent</text>
</g>
<!-- HomeComponent&#45;&gt;AppModule -->
<g id="edge2" class="edge">
<title>HomeComponent&#45;&gt;AppModule</title>
<path fill="none" stroke="#000000" d="M783,-122.1061C783,-141.3391 783,-169 783,-169 783,-169 518.9624,-169 518.9624,-169"/>
<polygon fill="#000000" stroke="#000000" points="518.9624,-165.5001 508.9624,-169 518.9623,-172.5001 518.9624,-165.5001"/>
</g>
<!-- HoursDialogComponent -->
<g id="node3" class="node">
<title>HoursDialogComponent</title>
<polygon fill="#ffffb3" stroke="#000000" points="706.647,-122 553.353,-122 553.353,-86 706.647,-86 706.647,-122"/>
<text text-anchor="middle" x="630" y="-99.8" font-family="Times,serif" font-size="14.00" fill="#000000">HoursDialogComponent</text>
</g>
<!-- HoursDialogComponent&#45;&gt;AppModule -->
<g id="edge3" class="edge">
<title>HoursDialogComponent&#45;&gt;AppModule</title>
<path fill="none" stroke="#000000" d="M630,-122.027C630,-138.3976 630,-160 630,-160 630,-160 518.9766,-160 518.9766,-160"/>
<polygon fill="#000000" stroke="#000000" points="518.9766,-156.5001 508.9766,-160 518.9765,-163.5001 518.9766,-156.5001"/>
</g>
<!-- OpenSignComponent -->
<g id="node4" class="node">
<title>OpenSignComponent</title>
<polygon fill="#ffffb3" stroke="#000000" points="535.8272,-122 398.1728,-122 398.1728,-86 535.8272,-86 535.8272,-122"/>
<text text-anchor="middle" x="467" y="-99.8" font-family="Times,serif" font-size="14.00" fill="#000000">OpenSignComponent</text>
</g>
<!-- OpenSignComponent&#45;&gt;AppModule -->
<g id="edge4" class="edge">
<title>OpenSignComponent&#45;&gt;AppModule</title>
<path fill="none" stroke="#000000" d="M467,-122.1061C467,-122.1061 467,-140.991 467,-140.991"/>
<polygon fill="#000000" stroke="#000000" points="463.5001,-140.9909 467,-150.991 470.5001,-140.991 463.5001,-140.9909"/>
</g>
<!-- AppComponent  -->
<g id="node9" class="node">
<title>AppComponent </title>
<polygon fill="#80b1d3" stroke="#000000" points="521.439,-252 412.561,-252 412.561,-216 521.439,-216 521.439,-252"/>
<text text-anchor="middle" x="467" y="-229.8" font-family="Times,serif" font-size="14.00" fill="#000000">AppComponent </text>
</g>
<!-- AppModule&#45;&gt;AppComponent  -->
<g id="edge8" class="edge">
<title>AppModule&#45;&gt;AppComponent </title>
<path fill="none" stroke="#000000" stroke-dasharray="1,5" d="M467,-187.1061C467,-187.1061 467,-205.991 467,-205.991"/>
<polygon fill="#000000" stroke="#000000" points="463.5001,-205.9909 467,-215.991 470.5001,-205.991 463.5001,-205.9909"/>
</g>
<!-- AppRoutingModule -->
<g id="node6" class="node">
<title>AppRoutingModule</title>
<polygon fill="#8dd3c7" stroke="#000000" points="374.2744,-122 371.2744,-126 350.2744,-126 347.2744,-122 245.7256,-122 245.7256,-86 374.2744,-86 374.2744,-122"/>
<text text-anchor="middle" x="310" y="-99.8" font-family="Times,serif" font-size="14.00" fill="#000000">AppRoutingModule</text>
</g>
<!-- AppRoutingModule&#45;&gt;AppModule -->
<g id="edge5" class="edge">
<title>AppRoutingModule&#45;&gt;AppModule</title>
<path fill="none" stroke="#000000" d="M310,-122.027C310,-138.3976 310,-160 310,-160 310,-160 415.3391,-160 415.3391,-160"/>
<polygon fill="#000000" stroke="#000000" points="415.3391,-163.5001 425.3391,-160 415.339,-156.5001 415.3391,-163.5001"/>
</g>
<!-- CoreModule -->
<g id="node7" class="node">
<title>CoreModule</title>
<polygon fill="#8dd3c7" stroke="#000000" points="227.2619,-122 224.2619,-126 203.2619,-126 200.2619,-122 140.7381,-122 140.7381,-86 227.2619,-86 227.2619,-122"/>
<text text-anchor="middle" x="184" y="-99.8" font-family="Times,serif" font-size="14.00" fill="#000000">CoreModule</text>
</g>
<!-- CoreModule&#45;&gt;AppModule -->
<g id="edge6" class="edge">
<title>CoreModule&#45;&gt;AppModule</title>
<path fill="none" stroke="#000000" d="M184,-122.1061C184,-141.3391 184,-169 184,-169 184,-169 415.2424,-169 415.2424,-169"/>
<polygon fill="#000000" stroke="#000000" points="415.2424,-172.5001 425.2424,-169 415.2423,-165.5001 415.2424,-172.5001"/>
</g>
<!-- SharedModule -->
<g id="node8" class="node">
<title>SharedModule</title>
<polygon fill="#8dd3c7" stroke="#000000" points="122.4231,-122 119.4231,-126 98.4231,-126 95.4231,-122 23.5769,-122 23.5769,-86 122.4231,-86 122.4231,-122"/>
<text text-anchor="middle" x="73" y="-99.8" font-family="Times,serif" font-size="14.00" fill="#000000">SharedModule</text>
</g>
<!-- SharedModule&#45;&gt;AppModule -->
<g id="edge7" class="edge">
<title>SharedModule&#45;&gt;AppModule</title>
<path fill="none" stroke="#000000" d="M73,-122.2921C73,-144.2057 73,-178 73,-178 73,-178 415.2081,-178 415.2081,-178"/>
<polygon fill="#000000" stroke="#000000" points="415.2081,-181.5001 425.2081,-178 415.2081,-174.5001 415.2081,-181.5001"/>
</g>
</g>
</svg>
