<svg xmlns="http://www.w3.org/2000/svg" xmlns:xlink="http://www.w3.org/1999/xlink" width="1328" height="284pt" viewBox="0 0 996 284"><g id="graph0" class="graph" transform="scale(1 1) rotate(0) translate(4 280)"><title>dependencies</title><polygon fill="#fff" stroke="transparent" points="-4 4 -4 -280 992 -280 992 4 -4 4"/><text x="473.009" y="-42.4" fill="#000" font-family="sans-serif" font-size="14" font-weight="bold" text-anchor="start">Legend</text><polygon fill="#ffffb3" stroke="transparent" points="260 -10 260 -30 280 -30 280 -10 260 -10"/><text x="283.629" y="-15.4" fill="#000" font-family="sans-serif" font-size="14" text-anchor="start">Declarations</text><polygon fill="#8dd3c7" stroke="transparent" points="373 -10 373 -30 393 -30 393 -10 373 -10"/><text x="396.725" y="-15.4" fill="#000" font-family="sans-serif" font-size="14" text-anchor="start">Module</text><polygon fill="#80b1d3" stroke="transparent" points="459 -10 459 -30 479 -30 479 -10 459 -10"/><text x="482.781" y="-15.4" fill="#000" font-family="sans-serif" font-size="14" text-anchor="start">Bootstrap</text><polygon fill="#fdb462" stroke="transparent" points="556 -10 556 -30 576 -30 576 -10 556 -10"/><text x="579.673" y="-15.4" fill="#000" font-family="sans-serif" font-size="14" text-anchor="start">Providers</text><polygon fill="#fb8072" stroke="transparent" points="652 -10 652 -30 672 -30 672 -10 652 -10"/><text x="675.726" y="-15.4" fill="#000" font-family="sans-serif" font-size="14" text-anchor="start">Exports</text><g id="clust1" class="cluster"><title>cluster_AppModule</title><polygon fill="none" stroke="#000" stroke-dasharray="1 5" points="8 -70 8 -268 980 -268 980 -70 8 -70"/></g><g id="clust2" class="cluster"><title>cluster_AppModule_declarations</title><polygon fill="none" stroke="#000" points="390 -78 390 -130 972 -130 972 -78 390 -78"/></g><g id="clust7" class="cluster"><title>cluster_AppModule_imports</title><polygon fill="none" stroke="#000" points="16 -78 16 -130 382 -130 382 -78 16 -78"/></g><g id="clust9" class="cluster"><title>cluster_AppModule_bootstrap</title><polygon fill="none" stroke="#000" points="405 -208 405 -260 529 -260 529 -208 405 -208"/></g><g id="node1" class="node"><title>AppComponent</title><polygon fill="#ffffb3" stroke="#000" points="963.94 -122 858.06 -122 858.06 -86 963.94 -86 963.94 -122"/><text x="911" y="-99.8" fill="#000" font-family="Times,serif" font-size="14" text-anchor="middle">AppComponent</text></g><g id="node5" class="node"><title>AppModule</title><polygon fill="#8dd3c7" stroke="#000" points="508.657 -187 505.657 -191 484.657 -191 481.657 -187 425.343 -187 425.343 -151 508.657 -151 508.657 -187"/><text x="467" y="-164.8" fill="#000" font-family="Times,serif" font-size="14" text-anchor="middle">AppModule</text></g><g id="edge1" class="edge"><title>AppComponent-&gt;AppModule</title><path fill="none" stroke="#000" d="M911,-122.2921C911,-144.2057 911,-178 911,-178 911,-178 518.7704,-178 518.7704,-178"/><polygon fill="#000" stroke="#000" points="518.77 -174.5 508.77 -178 518.77 -181.5 518.77 -174.5"/></g><g id="node2" class="node"><title>HomeComponent</title><polygon fill="#ffffb3" stroke="#000" points="840.545 -122 725.455 -122 725.455 -86 840.545 -86 840.545 -122"/><text x="783" y="-99.8" fill="#000" font-family="Times,serif" font-size="14" text-anchor="middle">HomeComponent</text></g><g id="edge2" class="edge"><title>HomeComponent-&gt;AppModule</title><path fill="none" stroke="#000" d="M783,-122.1061C783,-141.3391 783,-169 783,-169 783,-169 518.9624,-169 518.9624,-169"/><polygon fill="#000" stroke="#000" points="518.962 -165.5 508.962 -169 518.962 -172.5 518.962 -165.5"/></g><g id="node3" class="node"><title>HoursDialogComponent</title><polygon fill="#ffffb3" stroke="#000" points="706.647 -122 553.353 -122 553.353 -86 706.647 -86 706.647 -122"/><text x="630" y="-99.8" fill="#000" font-family="Times,serif" font-size="14" text-anchor="middle">HoursDialogComponent</text></g><g id="edge3" class="edge"><title>HoursDialogComponent-&gt;AppModule</title><path fill="none" stroke="#000" d="M630,-122.027C630,-138.3976 630,-160 630,-160 630,-160 518.9766,-160 518.9766,-160"/><polygon fill="#000" stroke="#000" points="518.977 -156.5 508.977 -160 518.976 -163.5 518.977 -156.5"/></g><g id="node4" class="node"><title>OpenSignComponent</title><polygon fill="#ffffb3" stroke="#000" points="535.827 -122 398.173 -122 398.173 -86 535.827 -86 535.827 -122"/><text x="467" y="-99.8" fill="#000" font-family="Times,serif" font-size="14" text-anchor="middle">OpenSignComponent</text></g><g id="edge4" class="edge"><title>OpenSignComponent-&gt;AppModule</title><path fill="none" stroke="#000" d="M467,-122.1061C467,-122.1061 467,-140.991 467,-140.991"/><polygon fill="#000" stroke="#000" points="463.5 -140.991 467 -150.991 470.5 -140.991 463.5 -140.991"/></g><g id="node9" class="node"><title>AppComponent</title><polygon fill="#80b1d3" stroke="#000" points="521.439 -252 412.561 -252 412.561 -216 521.439 -216 521.439 -252"/><text x="467" y="-229.8" fill="#000" font-family="Times,serif" font-size="14" text-anchor="middle">AppComponent</text></g><g id="edge8" class="edge"><title>AppModule-&gt;AppComponent</title><path fill="none" stroke="#000" stroke-dasharray="1 5" d="M467,-187.1061C467,-187.1061 467,-205.991 467,-205.991"/><polygon fill="#000" stroke="#000" points="463.5 -205.991 467 -215.991 470.5 -205.991 463.5 -205.991"/></g><g id="node6" class="node"><title>AppRoutingModule</title><polygon fill="#8dd3c7" stroke="#000" points="374.274 -122 371.274 -126 350.274 -126 347.274 -122 245.726 -122 245.726 -86 374.274 -86 374.274 -122"/><text x="310" y="-99.8" fill="#000" font-family="Times,serif" font-size="14" text-anchor="middle">AppRoutingModule</text></g><g id="edge5" class="edge"><title>AppRoutingModule-&gt;AppModule</title><path fill="none" stroke="#000" d="M310,-122.027C310,-138.3976 310,-160 310,-160 310,-160 415.3391,-160 415.3391,-160"/><polygon fill="#000" stroke="#000" points="415.339 -163.5 425.339 -160 415.339 -156.5 415.339 -163.5"/></g><g id="node7" class="node"><title>CoreModule</title><polygon fill="#8dd3c7" stroke="#000" points="227.262 -122 224.262 -126 203.262 -126 200.262 -122 140.738 -122 140.738 -86 227.262 -86 227.262 -122"/><text x="184" y="-99.8" fill="#000" font-family="Times,serif" font-size="14" text-anchor="middle">CoreModule</text></g><g id="edge6" class="edge"><title>CoreModule-&gt;AppModule</title><path fill="none" stroke="#000" d="M184,-122.1061C184,-141.3391 184,-169 184,-169 184,-169 415.2424,-169 415.2424,-169"/><polygon fill="#000" stroke="#000" points="415.242 -172.5 425.242 -169 415.242 -165.5 415.242 -172.5"/></g><g id="node8" class="node"><title>SharedModule</title><polygon fill="#8dd3c7" stroke="#000" points="122.423 -122 119.423 -126 98.423 -126 95.423 -122 23.577 -122 23.577 -86 122.423 -86 122.423 -122"/><text x="73" y="-99.8" fill="#000" font-family="Times,serif" font-size="14" text-anchor="middle">SharedModule</text></g><g id="edge7" class="edge"><title>SharedModule-&gt;AppModule</title><path fill="none" stroke="#000" d="M73,-122.2921C73,-144.2057 73,-178 73,-178 73,-178 415.2081,-178 415.2081,-178"/><polygon fill="#000" stroke="#000" points="415.208 -181.5 425.208 -178 415.208 -174.5 415.208 -181.5"/></g></g></svg>