<?xml version="1.0" encoding="UTF-8" standalone="no"?>
<!DOCTYPE svg PUBLIC "-//W3C//DTD SVG 1.1//EN"
 "http://www.w3.org/Graphics/SVG/1.1/DTD/svg11.dtd">
<!-- Generated by graphviz version 2.40.1 (20161225.0304)
 -->
<!-- Title: dependencies Pages: 1 -->
<svg width="914pt" height="211pt"
 viewBox="0.00 0.00 914.00 211.00" xmlns="http://www.w3.org/2000/svg" xmlns:xlink="http://www.w3.org/1999/xlink">
<g id="graph0" class="graph" transform="scale(1 1) rotate(0) translate(4 207)">
<title>dependencies</title>
<polygon fill="#ffffff" stroke="transparent" points="-4,4 -4,-207 910,-207 910,4 -4,4"/>
<text text-anchor="start" x="432.0091" y="-42.4" font-family="sans-serif" font-weight="bold" font-size="14.00" fill="#000000">Legend</text>
<polygon fill="#ffffb3" stroke="transparent" points="219,-10 219,-30 239,-30 239,-10 219,-10"/>
<text text-anchor="start" x="242.629" y="-15.4" font-family="sans-serif" font-size="14.00" fill="#000000"> &#160;Declarations</text>
<polygon fill="#8dd3c7" stroke="transparent" points="332,-10 332,-30 352,-30 352,-10 332,-10"/>
<text text-anchor="start" x="355.7251" y="-15.4" font-family="sans-serif" font-size="14.00" fill="#000000"> &#160;Module</text>
<polygon fill="#80b1d3" stroke="transparent" points="418,-10 418,-30 438,-30 438,-10 418,-10"/>
<text text-anchor="start" x="441.7812" y="-15.4" font-family="sans-serif" font-size="14.00" fill="#000000"> &#160;Bootstrap</text>
<polygon fill="#fdb462" stroke="transparent" points="515,-10 515,-30 535,-30 535,-10 515,-10"/>
<text text-anchor="start" x="538.6732" y="-15.4" font-family="sans-serif" font-size="14.00" fill="#000000"> &#160;Providers</text>
<polygon fill="#fb8072" stroke="transparent" points="611,-10 611,-30 631,-30 631,-10 611,-10"/>
<text text-anchor="start" x="634.7258" y="-15.4" font-family="sans-serif" font-size="14.00" fill="#000000"> &#160;Exports</text>
<g id="clust1" class="cluster">
<title>cluster_CalendarModule</title>
<polygon fill="none" stroke="#000000" stroke-dasharray="1,5" points="8,-70 8,-195 898,-195 898,-70 8,-70"/>
</g>
<g id="clust2" class="cluster">
<title>cluster_CalendarModule_declarations</title>
<polygon fill="none" stroke="#000000" points="620,-78 620,-130 890,-130 890,-78 620,-78"/>
</g>
<g id="clust5" class="cluster">
<title>cluster_CalendarModule_imports</title>
<polygon fill="none" stroke="#000000" points="324,-78 324,-130 612,-130 612,-78 324,-78"/>
</g>
<g id="clust8" class="cluster">
<title>cluster_CalendarModule_providers</title>
<polygon fill="none" stroke="#000000" points="16,-78 16,-130 316,-130 316,-78 16,-78"/>
</g>
<!-- CalendarComponent -->
<g id="node1" class="node">
<title>CalendarComponent</title>
<polygon fill="#ffffb3" stroke="#000000" points="881.8641,-122 750.1359,-122 750.1359,-86 881.8641,-86 881.8641,-122"/>
<text text-anchor="middle" x="816" y="-99.8" font-family="Times,serif" font-size="14.00" fill="#000000">CalendarComponent</text>
</g>
<!-- CalendarModule -->
<g id="node3" class="node">
<title>CalendarModule</title>
<polygon fill="#8dd3c7" stroke="#000000" points="508.0814,-187 505.0814,-191 484.0814,-191 481.0814,-187 397.9186,-187 397.9186,-151 508.0814,-151 508.0814,-187"/>
<text text-anchor="middle" x="453" y="-164.8" font-family="Times,serif" font-size="14.00" fill="#000000">CalendarModule</text>
</g>
<!-- CalendarComponent&#45;&gt;CalendarModule -->
<g id="edge1" class="edge">
<title>CalendarComponent&#45;&gt;CalendarModule</title>
<path fill="none" stroke="#000000" d="M816,-122.2843C816,-143.3211 816,-175 816,-175 816,-175 518.1319,-175 518.1319,-175"/>
<polygon fill="#000000" stroke="#000000" points="518.1319,-171.5001 508.1319,-175 518.1319,-178.5001 518.1319,-171.5001"/>
</g>
<!-- DayComponent -->
<g id="node2" class="node">
<title>DayComponent</title>
<polygon fill="#ffffb3" stroke="#000000" points="732.1542,-122 627.8458,-122 627.8458,-86 732.1542,-86 732.1542,-122"/>
<text text-anchor="middle" x="680" y="-99.8" font-family="Times,serif" font-size="14.00" fill="#000000">DayComponent</text>
</g>
<!-- DayComponent&#45;&gt;CalendarModule -->
<g id="edge2" class="edge">
<title>DayComponent&#45;&gt;CalendarModule</title>
<path fill="none" stroke="#000000" d="M680,-122.0225C680,-139.3734 680,-163 680,-163 680,-163 518.2402,-163 518.2402,-163"/>
<polygon fill="#000000" stroke="#000000" points="518.2402,-159.5001 508.2402,-163 518.2401,-166.5001 518.2402,-159.5001"/>
</g>
<!-- CalendarRoutingModule -->
<g id="node4" class="node">
<title>CalendarRoutingModule</title>
<polygon fill="#8dd3c7" stroke="#000000" points="603.6993,-122 600.6993,-126 579.6993,-126 576.6993,-122 448.3007,-122 448.3007,-86 603.6993,-86 603.6993,-122"/>
<text text-anchor="middle" x="526" y="-99.8" font-family="Times,serif" font-size="14.00" fill="#000000">CalendarRoutingModule</text>
</g>
<!-- CalendarRoutingModule&#45;&gt;CalendarModule -->
<g id="edge3" class="edge">
<title>CalendarRoutingModule&#45;&gt;CalendarModule</title>
<path fill="none" stroke="#000000" d="M478.2206,-122.1061C478.2206,-122.1061 478.2206,-140.991 478.2206,-140.991"/>
<polygon fill="#000000" stroke="#000000" points="474.7206,-140.9909 478.2206,-150.991 481.7206,-140.991 474.7206,-140.9909"/>
</g>
<!-- SharedModule -->
<g id="node5" class="node">
<title>SharedModule</title>
<polygon fill="#8dd3c7" stroke="#000000" points="430.4231,-122 427.4231,-126 406.4231,-126 403.4231,-122 331.5769,-122 331.5769,-86 430.4231,-86 430.4231,-122"/>
<text text-anchor="middle" x="381" y="-99.8" font-family="Times,serif" font-size="14.00" fill="#000000">SharedModule</text>
</g>
<!-- SharedModule&#45;&gt;CalendarModule -->
<g id="edge4" class="edge">
<title>SharedModule&#45;&gt;CalendarModule</title>
<path fill="none" stroke="#000000" d="M414.0852,-122.1061C414.0852,-122.1061 414.0852,-140.991 414.0852,-140.991"/>
<polygon fill="#000000" stroke="#000000" points="410.5853,-140.9909 414.0852,-150.991 417.5853,-140.991 410.5853,-140.9909"/>
</g>
<!-- CalendarService -->
<g id="node6" class="node">
<title>CalendarService</title>
<ellipse fill="#fdb462" stroke="#000000" cx="233" cy="-104" rx="74.6956" ry="18"/>
<text text-anchor="middle" x="233" y="-99.8" font-family="Times,serif" font-size="14.00" fill="#000000">CalendarService</text>
</g>
<!-- CalendarService&#45;&gt;CalendarModule -->
<g id="edge5" class="edge">
<title>CalendarService&#45;&gt;CalendarModule</title>
<path fill="none" stroke="#000000" d="M233,-122.0225C233,-139.3734 233,-163 233,-163 233,-163 387.7687,-163 387.7687,-163"/>
<polygon fill="#000000" stroke="#000000" points="387.7687,-166.5001 397.7687,-163 387.7686,-159.5001 387.7687,-166.5001"/>
</g>
<!-- DateService -->
<g id="node7" class="node">
<title>DateService</title>
<ellipse fill="#fdb462" stroke="#000000" cx="82" cy="-104" rx="58.4415" ry="18"/>
<text text-anchor="middle" x="82" y="-99.8" font-family="Times,serif" font-size="14.00" fill="#000000">DateService</text>
</g>
<!-- DateService&#45;&gt;CalendarModule -->
<g id="edge6" class="edge">
<title>DateService&#45;&gt;CalendarModule</title>
<path fill="none" stroke="#000000" d="M82,-122.2843C82,-143.3211 82,-175 82,-175 82,-175 387.8582,-175 387.8582,-175"/>
<polygon fill="#000000" stroke="#000000" points="387.8582,-178.5001 397.8582,-175 387.8581,-171.5001 387.8582,-178.5001"/>
</g>
</g>
</svg>
